<svg xmlns="http://www.w3.org/2000/svg" width="1800" height="576" viewBox="0 0 1800 576" version="1.1"><path d="M 1.229 21.250 L 1.500 41.500 12.500 42.130 C 26.005 42.903, 28.506 43.781, 29.359 48.047 C 29.712 49.809, 30 100.383, 30 160.434 C 30 247.424, 29.740 269.973, 28.723 271.364 C 27.020 273.694, 21.158 274.947, 11.832 274.976 C 7.614 274.989, 3.452 275.273, 2.582 275.607 C 1.213 276.132, 1 278.890, 1 296.107 L 1 316 76 316 L 151 316 151 296.125 L 151 276.250 147.875 275.625 C 146.156 275.281, 142.444 274.973, 139.625 274.940 C 131.363 274.844, 124.790 273.433, 123.334 271.442 C 121.461 268.881, 121.382 226.985, 123.250 227.029 C 123.938 227.046, 133.398 241.558, 144.274 259.279 C 155.150 277.001, 168.987 299.472, 175.024 309.215 L 186 326.930 186 337.826 L 186 348.721 191.250 349.352 C 194.137 349.699, 198.162 349.987, 200.193 349.991 C 207.356 350.008, 207 346.102, 207 424.699 L 207 494.954 204.717 496.450 C 203.461 497.273, 199.186 498.248, 195.217 498.616 L 188 499.287 188 513.144 L 188 527 240 527 L 292 527 292 513.215 L 292 499.429 283.824 498.335 C 277.986 497.553, 275.270 496.722, 274.324 495.429 C 273.343 494.086, 273 489.011, 273 475.809 C 273 456.688, 273.618 454.678, 277.477 461.250 C 279.745 465.113, 332.893 546.390, 344.176 563.250 L 352.039 575 360.453 575 L 368.866 575 340.117 531.250 C 324.305 507.188, 303.366 475.125, 293.586 460 C 264.234 414.607, 260.534 409.039, 259.711 409.019 C 259.278 409.009, 259.053 429.363, 259.211 454.250 C 259.499 499.289, 259.511 499.517, 261.766 503.144 C 264.166 507.003, 268.861 509.779, 274.551 510.702 C 276.531 511.023, 278 511.845, 278 512.631 C 278 513.766, 271.497 514, 240 514 C 208.272 514, 202 513.771, 202 512.614 C 202 511.747, 203.607 510.986, 206.283 510.585 C 211.900 509.742, 216.475 506.873, 218.701 502.794 C 220.388 499.705, 220.500 494.793, 220.500 424 C 220.500 349.639, 220.469 348.447, 218.446 345.003 C 215.766 340.441, 210.936 337.263, 205.427 336.437 C 198.732 335.433, 199.492 333, 206.500 333 C 209.525 333, 212 332.782, 212 332.515 C 212 332.249, 204.639 320.212, 195.642 305.765 C 144.769 224.084, 113.606 173.237, 113.218 171.282 C 112.922 169.786, 114.235 167.017, 117.247 162.782 C 126.591 149.643, 192.913 52.001, 195.312 47.851 C 202.827 34.849, 200.396 26.152, 188.690 24.164 C 185.389 23.603, 184.432 22.980, 184.180 21.226 L 183.861 19 224.930 19 C 265.016 19, 266 19.047, 266 20.955 C 266 22.443, 265.105 23.049, 262.250 23.495 C 246.694 25.925, 236.336 32.484, 226.012 46.440 C 216.604 59.157, 161 142.731, 161 144.154 C 161 144.798, 163.420 149.189, 166.377 153.912 C 169.334 158.636, 178.256 172.850, 186.203 185.500 C 194.150 198.150, 212.357 227.175, 226.664 250 C 252.458 291.151, 338.458 425.793, 339.890 427.267 C 340.671 428.072, 345.042 423.287, 390.365 372.020 C 405.691 354.684, 419.772 338.813, 421.656 336.750 L 425.081 333 457.540 333 C 484.383 333, 490 333.237, 490 334.372 C 490 335.190, 488.452 335.992, 486.171 336.357 C 481.818 337.053, 476.553 340.318, 473.846 344 C 470.339 348.770, 469.871 359.783, 470.192 430 L 470.500 497.500 472.790 501.789 C 475.462 506.792, 479.712 509.684, 485.717 510.585 C 488.393 510.986, 490 511.747, 490 512.614 C 490 513.773, 483.359 514, 449.500 514 C 415.858 514, 409 513.768, 409 512.629 C 409 511.737, 410.762 511.024, 414.041 510.589 C 420.292 509.760, 426.099 504.951, 427.831 499.171 C 429.285 494.318, 429.524 366.644, 428.078 367.167 C 426.501 367.737, 355.051 447.433, 355.025 448.651 C 355.004 449.630, 388.822 501.893, 426.591 559.250 L 436.962 575 445.463 575 L 453.964 575 442.677 557.750 C 436.470 548.263, 429.728 538.031, 427.695 535.013 C 425.663 531.996, 424 528.958, 424 528.263 C 424 527.267, 432.441 527, 464 527 L 504 527 504 513.129 L 504 499.258 496.750 498.559 C 492.762 498.174, 488.488 497.206, 487.250 496.407 L 485 494.954 485.015 424.227 C 485.024 385.327, 485.370 352.966, 485.786 352.313 C 487.098 350.248, 491.914 349, 498.565 349 L 505 349 505 334 L 505 319 461.720 319 L 418.441 319 382.470 359.605 C 362.687 381.938, 346.140 400.838, 345.700 401.605 C 345.260 402.372, 344.321 403, 343.612 403 C 342.903 403, 331.140 384.662, 317.472 362.250 C 303.804 339.837, 288.881 315.508, 284.310 308.184 C 279.740 300.860, 276 294.447, 276 293.934 C 276 293.361, 319.097 293, 387.500 293 L 499 293 499 273.093 L 499 253.187 489.250 252.516 C 483.888 252.147, 478.712 251.624, 477.750 251.355 C 476.129 250.901, 476 248.450, 476 218.058 C 476 200.013, 475.719 183.844, 475.375 182.125 C 474.892 179.709, 475.099 179, 476.288 179 C 477.133 179, 485.201 185.862, 494.215 194.250 C 513.371 212.073, 540.280 236.866, 558.046 253.063 C 564.946 259.353, 578.772 272.038, 588.770 281.250 L 606.949 298 621.475 298 C 629.464 298, 636 297.654, 636 297.230 C 636 296.807, 634.549 285.669, 632.776 272.480 L 629.552 248.500 629.526 165.286 C 629.503 92.620, 629.690 81.885, 631 80.591 C 632.899 78.715, 648 77.166, 648 78.847 C 648 79.465, 646.835 83.914, 645.412 88.735 C 640.526 105.283, 641.060 125.953, 646.770 141.360 C 652.038 155.571, 664.541 170.719, 680.008 181.629 C 690.437 188.986, 689.982 189.326, 670.284 188.879 L 653.569 188.500 648.838 202.500 C 640.544 227.043, 638.583 242.489, 641.414 261 C 643.219 272.808, 642.849 272.292, 654.454 279.192 C 665.216 285.590, 678.435 290.948, 690.500 293.800 C 700.466 296.155, 703.475 296.404, 722.500 296.450 C 738.870 296.489, 745.205 296.120, 751.234 294.775 C 769.878 290.618, 786.072 281.803, 798.124 269.250 C 802.481 264.712, 806.485 261, 807.023 261 C 807.618 261, 808 267.246, 808 277 L 808 293 873 293 L 938 293 938 273.136 L 938 253.272 933.360 252.636 C 930.809 252.286, 926.504 252, 923.795 252 C 914.471 252, 915 253.810, 915 221.879 L 915 193.828 926.398 194.164 C 935.712 194.439, 938.164 194.833, 939.808 196.324 C 942.189 198.481, 944 207.558, 944 217.332 L 944 224 961.481 224 L 978.962 224 979.478 226.750 C 979.762 228.262, 980.904 233.320, 982.015 237.988 C 989.301 268.608, 1012.409 290.654, 1048.750 301.657 C 1053.838 303.197, 1058 304.945, 1058 305.541 C 1058 306.734, 1035.586 312.363, 1024.500 313.955 C 1015.267 315.281, 915.685 315.276, 906.500 313.949 C 902.650 313.393, 892.854 311.377, 884.731 309.469 C 876.609 307.561, 869.746 306, 869.481 306 C 869.217 306, 869 313.650, 869 323 C 869 334.904, 868.664 340, 867.877 340 C 867.260 340, 863.983 337.407, 860.596 334.239 C 854.207 328.262, 844.136 322.407, 835.500 319.650 C 822.240 315.415, 815.169 315, 756.369 315 L 700 315 700 330.372 L 700 345.743 707.944 346.203 C 712.314 346.456, 716.589 347.244, 717.444 347.954 C 718.826 349.101, 719 357.493, 719 423.051 C 719 487.310, 718.806 497.051, 717.501 498.357 C 716.214 499.643, 712.940 500.287, 702.500 501.305 C 700.617 501.489, 700.484 502.335, 700.223 515.750 L 699.945 530 753.473 530 L 807 530 807 515.969 C 807 505.622, 806.672 501.833, 805.750 501.540 C 805.063 501.321, 801.458 500.849, 797.741 500.490 C 793.872 500.117, 790.344 499.201, 789.491 498.348 C 788.267 497.124, 788 493.198, 788 476.429 C 788 453.605, 788.766 451.374, 792.867 462.250 C 794.163 465.688, 798.603 475.443, 802.735 483.928 C 809.783 498.402, 810.781 499.893, 818.874 508.034 C 828.929 518.149, 836.611 522.422, 852.500 526.734 L 862.500 529.449 941.278 529.770 L 1020.055 530.090 1019.778 515.811 L 1019.500 501.532 1011.260 500.476 C 1006.727 499.895, 1002.452 498.853, 1001.760 498.160 C 1000.776 497.176, 1000.441 481.474, 1000.230 426.450 L 999.961 356 1005.230 356.020 C 1008.129 356.031, 1013.425 356.460, 1017 356.973 C 1027.210 358.438, 1029.672 362.140, 1032.145 379.750 L 1033.303 388 1039.652 388 C 1043.143 388, 1045.984 388.337, 1045.964 388.750 C 1045.945 389.163, 1045.275 392.200, 1044.475 395.500 C 1041.787 406.600, 1040.796 422.910, 1042.009 436.098 C 1044.671 465.034, 1054.328 486.626, 1072.193 503.583 C 1083.420 514.240, 1093.607 520.524, 1109.013 526.293 C 1131.145 534.581, 1161.632 535.833, 1186.667 529.483 C 1195.834 527.157, 1213.992 519.278, 1219.933 515.048 C 1224.595 511.728, 1225 512.244, 1225 521.500 L 1225 530 1267 530 L 1309 530 1309 515.500 L 1309 501 1306.125 501 C 1301.510 501, 1297 499.840, 1297 498.652 C 1297 498.049, 1298.463 493.831, 1300.250 489.281 L 1303.500 481.007 1326.177 481.004 L 1348.855 481 1351.980 489.105 C 1356.094 499.771, 1355.912 500.425, 1348.740 500.800 L 1343 501.100 1343 515.550 L 1343 530 1399 530 L 1455 530 1455 521.500 C 1455 511.382, 1455.242 511.261, 1464.062 516.961 C 1471.275 521.624, 1487.600 528.153, 1497.500 530.334 C 1533.834 538.341, 1572.581 531.484, 1600 512.194 C 1607.919 506.622, 1620.321 494.827, 1623.307 490.026 C 1625.338 486.761, 1625.537 484.912, 1626 465.011 L 1626.500 443.521 1631.500 442.780 C 1634.250 442.373, 1637.063 442.241, 1637.750 442.488 C 1638.707 442.832, 1639 449.150, 1639 469.469 C 1639 501.133, 1639.643 499.458, 1627.075 500.554 L 1619 501.258 1619 515.629 L 1619 530 1701.372 530 L 1783.744 530 1784.411 525.750 C 1784.777 523.413, 1788.209 506.922, 1792.038 489.104 C 1795.867 471.285, 1799 454.298, 1799 451.354 L 1799 446 1784 446 L 1769 446 1769 416.404 L 1769 386.809 1775.250 387.154 L 1781.500 387.500 1781.761 346.679 C 1782.008 308.096, 1781.926 305.888, 1780.261 306.402 C 1774.549 308.165, 1752.431 313.119, 1746.500 313.963 C 1742.482 314.536, 1713.830 314.969, 1679.250 314.980 L 1619 315 1619 330.352 L 1619 345.704 1626.796 346.305 C 1636.247 347.034, 1637.636 347.515, 1638.388 350.319 C 1638.709 351.519, 1638.979 365.887, 1638.986 382.250 L 1639 412 1589.474 412 L 1539.948 412 1540.224 427.250 L 1540.500 442.500 1548.390 442.668 C 1553.683 442.781, 1556.578 443.274, 1557.185 444.168 C 1557.682 444.901, 1557.936 452.025, 1557.749 460 C 1557.458 472.415, 1557.105 475.075, 1555.296 478.500 C 1550.286 487.984, 1541.829 492.444, 1528.888 492.424 C 1521.233 492.412, 1519.554 492.055, 1513.766 489.205 C 1495.077 480.005, 1485.903 455.779, 1487.287 419.286 C 1488.194 395.354, 1494.055 377.666, 1505.073 365.611 C 1517.708 351.786, 1538.744 349.003, 1557.957 358.615 C 1570.012 364.646, 1578.292 376.460, 1583.027 394.387 L 1585.303 403 1599.151 403 L 1613 403 1613 367.513 L 1613 332.025 1608.750 329.342 C 1602.953 325.683, 1588.307 319.660, 1577.803 316.616 C 1552.210 309.199, 1518.951 309.007, 1493 316.124 C 1483.673 318.683, 1469.286 325.377, 1460.877 331.071 C 1446.690 340.679, 1432.271 358.100, 1425.419 373.910 C 1414.795 398.426, 1412.198 431.430, 1418.981 455.737 C 1421.364 464.280, 1421.338 464.004, 1419.750 463.987 C 1418.461 463.973, 1406.523 437.919, 1370.396 356.276 C 1358.903 330.303, 1349.034 308.866, 1348.464 308.639 C 1347.894 308.412, 1343.308 308.462, 1338.273 308.749 L 1329.119 309.271 1322.108 325.385 C 1314.837 342.099, 1288.245 402.267, 1264.935 454.749 C 1257.546 471.385, 1251.038 484.998, 1250.473 484.999 C 1249.227 485, 1249.762 444.958, 1251.026 443.622 C 1251.483 443.138, 1255.002 442.518, 1258.845 442.243 C 1267.291 441.639, 1266.968 442.333, 1266.986 424.750 C 1266.998 414.077, 1266.756 412, 1265.500 412 C 1264.236 412, 1263.995 409.681, 1263.969 397.250 C 1263.884 357.328, 1255.793 330.082, 1237.097 306.770 C 1233.891 302.771, 1229.857 298.178, 1228.134 296.563 C 1223.116 291.860, 1223.868 291, 1233 291 C 1237.667 291, 1241 291.417, 1241 292 C 1241 292.662, 1292 293, 1392 293 L 1543 293 1543 278.500 C 1543 268.648, 1543.352 264, 1544.097 264 C 1544.700 264, 1548.187 266.746, 1551.847 270.101 C 1564.202 281.432, 1584.664 289.402, 1607.789 291.892 C 1613.448 292.501, 1629.086 293, 1642.539 293 L 1667 293 1667 273.098 L 1667 253.196 1660.750 252.536 C 1643.262 250.689, 1638.840 248.714, 1632.153 239.764 C 1625.586 230.976, 1573 148.027, 1573 146.457 C 1573 145.144, 1588.484 123.346, 1607.202 98.308 C 1618.747 82.865, 1623.153 80.204, 1639.770 78.639 L 1651.041 77.578 1650.770 58.039 L 1650.500 38.500 1602 38.213 C 1575.325 38.056, 1552.124 38.173, 1550.441 38.473 L 1547.383 39.019 1547.357 58.509 C 1547.343 69.229, 1547.707 78, 1548.166 78 C 1548.625 78, 1549 78.688, 1549 79.528 C 1549 81.629, 1523.250 117.422, 1521.449 117.823 C 1520.227 118.096, 1520 115.418, 1520 100.684 C 1520 78.356, 1519.570 79.055, 1533.796 78.271 L 1544.041 77.707 1543.771 58.103 L 1543.500 38.500 1478.250 38.243 L 1413 37.986 1413 57.842 L 1413 77.698 1422.701 78.336 C 1429.445 78.779, 1432.874 79.445, 1433.951 80.522 C 1435.304 81.875, 1435.535 88.881, 1435.775 136.035 L 1436.050 190 1421.994 190 C 1411.622 190, 1407.835 190.328, 1407.549 191.250 C 1407.335 191.938, 1405.991 196.775, 1404.562 202 C 1399.189 221.644, 1391.374 232.472, 1379.309 236.985 C 1374.425 238.813, 1360.016 240.897, 1351.732 240.974 L 1348.965 241 1349.232 161.535 C 1349.474 89.780, 1349.657 81.913, 1351.123 80.448 C 1352.317 79.254, 1355.430 78.677, 1362.894 78.266 L 1373.041 77.707 1372.771 58.103 L 1372.500 38.500 1307.250 38.243 L 1242 37.986 1242 57.842 L 1242 77.698 1251.317 78.310 C 1261.884 79.004, 1263.730 79.503, 1264.395 81.842 C 1264.654 82.754, 1265.008 120.773, 1265.183 166.329 C 1265.493 247.358, 1265.458 249.190, 1263.559 250.579 C 1262.491 251.361, 1259.454 252, 1256.809 252 L 1252 252 1252.019 204.250 L 1252.037 156.500 1226.269 131.105 C 1212.096 117.138, 1181.776 87.101, 1158.892 64.355 C 1136.008 41.610, 1116.718 23, 1116.026 23 C 1114.884 23, 1010.087 125.551, 993.653 142.750 C 989.843 146.738, 986.113 150, 985.363 150 C 984.291 150, 984 147.542, 984 138.500 L 984 127 991.500 127 L 999 127 999 76.500 C 999 48.725, 998.682 26, 998.294 26 C 997.906 26, 992.843 27.545, 987.044 29.434 C 959.952 38.258, 970.946 37.320, 884.500 38.185 C 842.150 38.608, 804.800 38.960, 801.500 38.967 C 798.200 38.974, 785.600 38.006, 773.500 36.814 C 744.845 33.994, 716.855 33.780, 705.195 36.293 C 686.564 40.309, 673.422 47.433, 661.768 59.835 C 658.065 63.776, 654.577 67, 654.018 67 C 653.374 67, 653 61.666, 653 52.493 L 653 37.986 587.750 38.243 L 522.500 38.500 522.229 58.098 L 521.959 77.697 532.214 78.369 C 539.311 78.834, 542.936 79.507, 543.985 80.555 C 546.245 82.813, 546.865 152.339, 544.621 151.833 C 543.809 151.650, 527.025 136.395, 507.323 117.934 C 487.620 99.472, 459.667 73.372, 445.205 59.934 L 418.909 35.500 412.205 34.874 C 408.517 34.530, 401.113 34.193, 395.750 34.124 C 386.625 34.008, 386 34.128, 386 36 C 386 37.974, 385.333 38, 335.500 38 L 285 38 285 19.500 L 285 1 225 1 L 165 1 165 21 L 165 41 168.750 41.015 C 173.158 41.033, 175.505 42.258, 174.757 44.149 C 174.463 44.892, 164.835 59.238, 153.361 76.029 C 141.888 92.820, 130.700 109.354, 128.500 112.770 C 126.300 116.187, 123.978 118.986, 123.340 118.991 C 122.493 118.998, 122.088 110.971, 121.840 89.281 C 121.444 54.656, 121.851 46.720, 124.142 44.430 C 125.526 43.046, 136.829 41.424, 147.750 41.044 C 148.707 41.010, 149 36.310, 149 21 L 149 1 74.979 1 L 0.959 1 1.229 21.250 M 20 20.981 C 20 23.001, 20.599 23.252, 28.453 24.526 C 37.458 25.986, 44.654 32.271, 47.150 40.856 C 49.151 47.740, 49.146 271.672, 47.144 277.336 C 44.245 285.539, 36.846 291.051, 26.750 292.531 C 23.008 293.079, 22 293.627, 22 295.114 C 22 296.939, 23.750 297, 76 297 C 129.333 297, 130 296.975, 130 295 C 130 293.575, 129.333 293, 127.682 293 C 122.153 293, 114.464 289.728, 110.368 285.632 C 102.152 277.415, 102.615 284.249, 102.227 165.500 C 101.853 51.019, 102.087 44.310, 106.761 35.642 C 110.131 29.391, 116.232 25.363, 124 24.260 C 128.648 23.600, 129.550 23.132, 129.820 21.240 L 130.139 19 75.070 19 C 20.843 19, 20 19.030, 20 20.981 M 249.901 48.709 C 247.643 50.748, 243.895 54.911, 241.571 57.959 C 234.788 66.855, 184 142.861, 184 144.116 C 184 145.192, 192.669 159.531, 215.671 196.500 C 221.146 205.300, 232.112 222.963, 240.039 235.750 C 247.967 248.537, 255.026 259, 255.727 259 C 256.463 259, 257 257.785, 257 256.119 L 257 253.239 267.455 252.526 C 275.042 252.009, 278.265 251.386, 279.205 250.254 C 280.234 249.014, 280.566 232.865, 280.821 171.597 C 281.142 94.427, 280.886 83.569, 278.681 80.607 C 277.802 79.428, 274.874 78.853, 267.250 78.361 L 257 77.699 257 61.350 C 257 42.719, 256.842 42.438, 249.901 48.709 M 802.155 67.750 C 800.890 79.713, 799.189 96.025, 798.377 104 C 797.565 111.975, 796.712 119.063, 796.481 119.750 C 796.167 120.688, 791.590 121, 778.148 121 C 757.818 121, 759.060 121.584, 758.998 112 C 758.953 105.108, 756.500 96.167, 753.867 93.303 C 752.565 91.887, 749.475 89.813, 747 88.693 C 737.779 84.524, 721.240 86.947, 718.033 92.938 C 714.765 99.044, 717.514 101.530, 748.500 120.492 C 788.902 145.215, 799.444 153.406, 808.643 167.224 C 817.489 180.512, 820.965 192.862, 820.965 211 C 820.965 224.233, 819.314 233.260, 814.877 244.289 C 813.154 248.572, 811.925 252.258, 812.145 252.479 C 813.154 253.487, 828.279 251.578, 829.579 250.278 C 830.784 249.073, 831 236.279, 831 166.039 C 831 88.649, 830.885 83.081, 829.250 81.077 C 827.741 79.228, 826.089 78.848, 817.250 78.316 L 807 77.698 807 61.849 C 807 49.693, 806.704 46, 805.728 46 C 804.809 46, 803.819 52.027, 802.155 67.750 M 1056.135 107.597 L 998 165.195 998 191.656 C 998 206.209, 998.501 221.353, 999.114 225.308 C 1002.820 249.239, 1015.125 265.679, 1037.476 276.559 C 1054.517 284.856, 1072.037 289.182, 1120.016 296.943 C 1163.570 303.987, 1176.394 307.194, 1192.619 315.096 C 1203.156 320.229, 1213.712 328.690, 1217.307 334.886 C 1219.405 338.503, 1218.908 338.723, 1214.618 336.075 C 1209.425 332.869, 1196.733 329.083, 1183.771 326.871 C 1168.125 324.202, 1142.600 324.651, 1128.936 327.836 C 1103.693 333.718, 1084.366 346.576, 1071.571 365.998 C 1049.682 399.223, 1049.973 450.388, 1072.236 482.831 C 1073.870 485.213, 1077.741 489.655, 1080.837 492.702 C 1104.049 515.546, 1141.152 524.815, 1178.500 517.099 C 1197.897 513.091, 1215.568 503.477, 1228.750 489.758 L 1236 482.213 1236.004 460.857 C 1236.007 441.452, 1236.186 439.208, 1237.956 436.304 C 1240.482 432.161, 1243.944 429.951, 1248.962 429.278 C 1251.448 428.945, 1253 428.211, 1253 427.368 C 1253 426.235, 1246.640 426, 1216 426 C 1185.309 426, 1179 426.234, 1179 427.372 C 1179 428.198, 1180.581 428.997, 1182.974 429.380 C 1188.902 430.328, 1193.606 434.935, 1194.925 441.087 C 1196.317 447.577, 1196.308 467.964, 1194.911 475.526 C 1192.093 490.765, 1181.045 501.652, 1164.879 505.119 C 1161.929 505.752, 1155.299 506.041, 1149.807 505.777 C 1141.069 505.356, 1139.211 504.913, 1132.750 501.708 C 1119.864 495.316, 1110.722 483.732, 1105.065 466.629 C 1092.150 427.582, 1098.765 378.307, 1119.953 355.729 C 1130.718 344.258, 1142.688 339.152, 1159 339.075 C 1181.216 338.970, 1198.533 348.048, 1210.209 365.922 C 1212.962 370.136, 1216.017 376.506, 1217.278 380.662 C 1220.945 392.740, 1221.794 390.308, 1221.220 369.368 C 1220.643 348.328, 1220.771 348.054, 1227.202 356.528 C 1235.616 367.616, 1240.651 381.941, 1241.693 397.750 C 1242.140 404.545, 1242.660 407, 1243.651 407 C 1244.701 407, 1245 404.571, 1245 396.039 C 1245 342.722, 1226.545 310.763, 1183.250 289.108 L 1173 283.982 1173 238.991 C 1173 198.853, 1172.831 194, 1171.436 194 C 1169.985 194, 1148.492 210, 1146.696 212.417 C 1146.253 213.013, 1146.048 227.113, 1146.239 243.750 C 1146.621 276.931, 1146.955 275.262, 1140.468 272.551 L 1137 271.102 1137 243.800 L 1137 216.497 1124.458 208.249 C 1117.560 203.712, 1111.485 200, 1110.958 200 C 1110.367 200, 1110 212.309, 1110 232.111 L 1110 264.223 1106.258 263.521 C 1104.199 263.134, 1102.174 262.608, 1101.758 262.350 C 1101.341 262.093, 1101 245.965, 1101 226.511 L 1101 191.141 1088.750 182.097 C 1082.013 177.124, 1075.938 173.042, 1075.250 173.027 C 1074.270 173.006, 1074 181.752, 1074 213.500 C 1074 235.775, 1073.624 254, 1073.165 254 C 1072.706 254, 1069.443 253.060, 1065.915 251.912 C 1049.691 246.631, 1040.008 239.803, 1035.407 230.399 C 1033.039 225.559, 1032.580 222.998, 1031.735 209.897 C 1031.204 201.662, 1031.060 191.004, 1031.414 186.213 L 1032.058 177.500 1073.768 136.250 C 1096.708 113.563, 1115.715 95, 1116.004 95 C 1116.294 95, 1135.762 114.250, 1159.266 137.777 L 1202 180.554 1202 226.277 L 1202 272 1217.500 272 L 1233 272 1233 218.747 L 1233 165.494 1175.247 107.747 C 1143.483 75.986, 1116.768 50, 1115.882 50 C 1114.996 50, 1088.110 75.919, 1056.135 107.597 M 974.988 52.947 C 974.157 53.434, 969.720 54.545, 965.128 55.416 C 958.099 56.750, 947.347 57.001, 897.140 57.009 C 864.338 57.013, 835.138 57.301, 832.250 57.648 C 825.721 58.432, 825.246 60.542, 831.441 61.240 C 838.249 62.008, 844.380 66.103, 847.154 71.736 L 849.500 76.500 849.791 163.500 C 849.997 225.083, 849.756 251.815, 848.966 255 C 846.845 263.552, 839.309 269.924, 831.250 269.978 C 828.674 269.995, 828 270.415, 828 272 C 828 273.971, 828.667 274, 873.500 274 C 913.018 274, 919 273.805, 919 272.519 C 919 271.705, 917.763 270.784, 916.250 270.474 C 905.005 268.165, 900.111 264.709, 897.584 257.292 C 896.246 253.364, 896 246.614, 896 213.755 L 896 174.867 919.250 175.184 C 940.885 175.478, 942.783 175.651, 946.568 177.678 C 954.806 182.087, 961 192.175, 961 201.182 C 961 203.020, 961.521 204, 962.500 204 C 963.806 204, 964 199.333, 964 168 C 964 139.677, 963.731 132, 962.738 132 C 962.041 132, 960.640 134.915, 959.613 138.500 C 957.273 146.671, 952.096 152.815, 944.788 156.093 C 939.847 158.310, 938.072 158.488, 917.750 158.817 L 896 159.169 896 115.478 L 896 71.787 922.750 72.219 C 947.691 72.621, 949.906 72.806, 955.500 74.952 C 966.420 79.143, 974.522 89.908, 976.618 103.010 C 977.002 105.415, 977.801 107, 978.628 107 C 979.757 107, 980 102.139, 980 79.500 C 980 53.965, 979.875 52.002, 978.250 52.030 C 977.288 52.047, 975.820 52.459, 974.988 52.947 M 713.539 54.112 C 688.433 57.770, 671.408 71.044, 664.303 92.500 C 662.058 99.279, 661.642 102.332, 661.577 112.500 C 661.482 127.253, 663.866 135.642, 671.318 146.784 C 677.389 155.860, 684.590 161.962, 705.500 175.748 C 714.300 181.550, 727.277 190.100, 734.337 194.748 C 758.633 210.744, 765.640 219.775, 764.791 234 C 764.357 241.285, 762.442 245.955, 757.545 251.677 C 745.896 265.286, 717.340 268.185, 697.706 257.753 C 682.287 249.561, 673.658 236.312, 670.900 216.600 C 670.092 210.821, 669.270 208, 668.395 208 C 666.463 208, 661.242 225.345, 659.932 236.119 C 658.560 247.407, 659.445 259.189, 661.827 261.340 C 665.284 264.460, 682.865 272.105, 692.500 274.678 C 701.715 277.138, 704.071 277.351, 722.500 277.393 C 745.504 277.444, 751.334 276.418, 764.673 269.969 C 789.273 258.075, 802.027 237.950, 801.985 211.090 C 801.962 195.721, 799.257 186.975, 790.766 174.811 C 785.410 167.137, 776.823 160.520, 753.311 145.952 C 701.688 113.965, 698 110.668, 698 96.500 C 698 83.712, 707.012 73.212, 721.236 69.425 C 728.893 67.387, 742.555 67.606, 749.875 69.884 C 765.194 74.652, 773.075 83.071, 776.430 98.250 C 776.765 99.763, 777.618 101, 778.326 101 C 779.267 101, 780.229 95.179, 781.893 79.419 C 783.147 67.550, 784.021 57.687, 783.835 57.502 C 783.650 57.317, 772.800 56.228, 759.725 55.082 C 734.827 52.901, 723.485 52.663, 713.539 54.112 M 407.335 56.250 C 407.638 57.487, 408.698 63.900, 409.689 70.500 C 411.318 81.344, 411.492 90.740, 411.496 168 L 411.500 253.500 408.702 259.198 C 405.832 265.043, 402.003 268.318, 396.750 269.422 C 395.238 269.740, 392.875 270.234, 391.500 270.519 C 390.125 270.805, 389 271.705, 389 272.519 C 389 273.805, 394.982 274, 434.500 274 C 474.018 274, 480 273.805, 480 272.519 C 480 271.705, 478.762 270.784, 477.250 270.474 C 466.377 268.242, 461.469 264.926, 458.395 257.737 C 456.755 253.903, 456.546 249.170, 456.193 208 C 455.811 163.268, 456.477 136, 457.954 136 C 458.781 136, 482.978 157.879, 522.022 193.933 C 536.059 206.895, 560.809 229.707, 577.022 244.627 C 593.235 259.547, 607.591 272.935, 608.924 274.377 C 611.566 277.235, 614 277.819, 614 275.595 C 614 274.822, 613.233 268.185, 612.295 260.845 C 610.812 249.234, 610.585 236.582, 610.545 163.500 C 610.503 85.525, 610.627 79.135, 612.277 74.411 C 614.917 66.851, 620.101 62.561, 628.288 61.164 C 631.095 60.684, 632.593 59.877, 632.815 58.724 C 633.125 57.112, 630.170 57, 587.500 57 C 544.830 57, 541.875 57.112, 542.185 58.724 C 542.407 59.875, 543.901 60.684, 546.682 61.159 C 554.531 62.499, 559.443 66.287, 562.702 73.514 C 564.356 77.182, 564.524 82.273, 564.801 137.250 C 564.966 170.113, 564.832 197, 564.503 197 C 563.970 197, 503.514 140.743, 435.278 76.750 C 411.503 54.454, 405.883 50.331, 407.335 56.250 M 277 58.870 C 277 60.345, 277.953 60.847, 281.518 61.249 C 287.347 61.906, 293.435 65.972, 295.939 70.880 C 297.027 73.013, 298.383 77.625, 298.951 81.129 C 300.352 89.765, 300.330 247.837, 298.926 254 C 296.794 263.366, 291.297 268.551, 282.109 269.865 C 278.878 270.328, 277.424 271.035, 277.188 272.261 C 276.874 273.893, 279.669 274, 322.427 274 C 362.009 274, 368 273.805, 368 272.519 C 368 271.152, 367.060 270.783, 360 269.376 C 355.660 268.512, 350.122 264.153, 347.770 259.749 L 345.500 255.500 345.196 170 C 344.982 109.488, 345.223 82.746, 346.022 78.500 C 347.924 68.396, 353.446 62.586, 362.300 61.372 C 366.985 60.730, 368.570 58.816, 365.418 57.607 C 364.548 57.273, 344.298 57, 320.418 57 C 278.673 57, 277 57.072, 277 58.870 M 1263.750 57.689 C 1260.614 58.509, 1261.733 60.998, 1265.250 61.028 C 1269.833 61.068, 1277.093 65.046, 1279.752 68.975 C 1284.535 76.041, 1284.500 75.333, 1284.500 166 C 1284.500 234.504, 1284.234 252.416, 1283.160 256.107 C 1280.907 263.854, 1275.040 268.588, 1266.109 269.865 C 1262.878 270.328, 1261.424 271.035, 1261.188 272.261 C 1260.872 273.901, 1265.213 274, 1337.344 274 L 1413.834 274 1414.836 269.250 C 1418.152 253.530, 1426.080 208.747, 1425.627 208.294 C 1424.201 206.867, 1422.270 209.309, 1420.614 214.635 C 1413.834 236.432, 1397.213 252.672, 1376.745 257.498 C 1372.336 258.538, 1364.537 258.975, 1350.220 258.985 L 1329.939 259 1330.220 168.250 C 1330.482 83.400, 1330.617 77.241, 1332.298 73.514 C 1333.286 71.321, 1335.086 68.449, 1336.298 67.132 C 1339.181 63.995, 1345.667 61.050, 1349.750 61.022 C 1352.326 61.005, 1353 60.585, 1353 59 C 1353 57.029, 1352.372 57.002, 1309.250 57.116 C 1285.188 57.180, 1264.713 57.438, 1263.750 57.689 M 1432 59 C 1432 60.585, 1432.674 61.005, 1435.250 61.022 C 1439.780 61.053, 1446.093 64.134, 1449.205 67.832 C 1454.646 74.299, 1454.500 71.556, 1454.500 167 L 1454.500 255.500 1452.278 259.655 C 1448.791 266.177, 1445.357 268.296, 1434.750 270.474 C 1433.237 270.784, 1432 271.705, 1432 272.519 C 1432 273.805, 1437.982 274, 1477.500 274 C 1522.333 274, 1523 273.971, 1523 272 C 1523 270.415, 1522.326 269.995, 1519.750 269.978 C 1515.215 269.947, 1508.905 266.865, 1505.783 263.154 C 1500.933 257.390, 1500.850 255.581, 1501.186 163 L 1501.500 76.500 1503.871 71.684 C 1506.347 66.656, 1511.357 62.559, 1516.250 61.561 C 1517.763 61.252, 1520.125 60.766, 1521.500 60.481 C 1522.875 60.195, 1524 59.295, 1524 58.481 C 1524 57.194, 1517.959 57, 1478 57 C 1432.667 57, 1432 57.029, 1432 59 M 1567 58.986 C 1567 60.455, 1567.661 61, 1569.444 61 C 1573.374 61, 1577.400 65.145, 1577.400 69.191 C 1577.400 73.875, 1575.330 77.168, 1551.395 110.565 C 1516.065 159.862, 1509 170.146, 1509 172.278 C 1509 174.058, 1523.301 197.093, 1549.494 237.500 C 1567.290 264.954, 1587.434 273.885, 1631.750 273.969 C 1644.657 273.994, 1648 273.725, 1648 272.664 C 1648 271.876, 1645.435 270.618, 1641.750 269.598 C 1629.727 266.270, 1621.669 259.156, 1610.488 242 C 1592.572 214.510, 1549 146.193, 1549 145.592 C 1549 143.598, 1596.262 80.547, 1602.135 74.705 C 1609.446 67.434, 1618.656 62.258, 1626.049 61.267 C 1629.068 60.862, 1630.015 60.315, 1629.783 59.112 C 1629.507 57.677, 1626.041 57.471, 1598.237 57.236 C 1567.506 56.976, 1567 57.004, 1567 58.986 M 387 71.352 L 387 77.705 377.250 78.389 C 370.678 78.851, 367.011 79.563, 366 80.573 C 364.690 81.881, 364.500 92.724, 364.500 165.952 C 364.500 212.087, 364.874 250.208, 365.331 250.667 C 365.787 251.125, 371.187 251.642, 377.331 251.815 C 386.021 252.061, 388.944 251.801, 390.500 250.646 C 392.471 249.183, 392.500 248, 392.500 167.831 C 392.500 103.976, 392.200 84.190, 391.102 75.750 C 390.104 68.072, 389.318 65, 388.352 65 C 387.358 65, 387 66.681, 387 71.352 M 915 116 L 915 140 923.750 139.944 C 934.618 139.873, 939.006 138.483, 940.909 134.508 C 941.697 132.862, 943.016 126.674, 943.841 120.758 L 945.340 110 951.670 110 L 958 110 958 106.960 C 958 102.587, 954.438 96.238, 950.710 93.965 C 947.872 92.234, 945.617 92.007, 931.250 92.004 L 915 92 915 116 M 1110.208 127.288 C 1107.894 129.646, 1106 132.037, 1106 132.601 C 1106 133.165, 1107.390 134.948, 1109.089 136.563 C 1113.383 140.645, 1116.933 146.992, 1117.807 152.147 C 1118.500 156.239, 1118.753 156.515, 1122.022 156.753 C 1123.935 156.893, 1128.290 157.724, 1131.701 158.601 L 1137.902 160.195 1141.933 156.848 C 1144.150 155.006, 1145.972 153.031, 1145.982 152.458 C 1146.003 151.240, 1116.578 123, 1115.288 123 C 1114.809 123, 1112.523 124.930, 1110.208 127.288 M 1081.030 147.279 C 1077.459 149.086, 1074 154.729, 1074 158.747 C 1074 169.124, 1083.880 175.216, 1093.033 170.483 C 1101.072 166.326, 1100.933 151.860, 1092.810 147.353 C 1089.851 145.711, 1084.199 145.676, 1081.030 147.279 M 1155.190 171.026 C 1153.369 172.136, 1151.216 174.633, 1150.404 176.575 C 1146.359 186.257, 1155.954 196.587, 1165.312 192.625 C 1169.932 190.670, 1172.169 187.678, 1172.730 182.706 C 1173.362 177.092, 1171.196 172.795, 1166.643 170.635 C 1162.099 168.479, 1159.205 168.577, 1155.190 171.026 M 1117.270 177.444 C 1107.428 181.841, 1108.228 196.337, 1118.503 199.776 C 1128.190 203.018, 1136.696 193.387, 1132.664 183.739 C 1130.085 177.567, 1123.251 174.771, 1117.270 177.444 M 1050.918 186.154 C 1050.129 187.628, 1049.915 193.070, 1050.239 203.404 C 1050.732 219.079, 1051.261 222, 1053.607 222 C 1054.749 222, 1055 218.574, 1055 203 C 1055 186.981, 1054.770 184, 1053.535 184 C 1052.730 184, 1051.552 184.969, 1050.918 186.154 M 688.008 195.250 C 688.022 205.465, 689.872 218.582, 692.163 224.706 C 695.093 232.538, 702.553 239.941, 710.517 242.920 C 717.482 245.527, 728.171 245.970, 734.892 243.931 C 740.571 242.208, 746 237.150, 746 233.582 C 746 226.708, 740.772 221.686, 718.605 207.267 C 709.747 201.505, 699.880 195.038, 696.677 192.896 C 688.609 187.499, 687.998 187.665, 688.008 195.250 M 1520 240.465 C 1520 251.421, 1520.449 252, 1528.934 252 C 1532.657 252, 1534 251.621, 1534 250.572 C 1534 248.411, 1522.683 231.066, 1521.250 231.031 C 1520.336 231.008, 1520 233.543, 1520 240.465 M 1061 329.500 C 1061 349.722, 1061.209 353, 1062.500 353 C 1063.325 353, 1064 352.586, 1064 352.081 C 1064 350.475, 1078.961 336.129, 1085.504 331.460 C 1091.511 327.174, 1109.477 318, 1111.866 318 C 1112.490 318, 1113 317.325, 1113 316.500 C 1113 315.675, 1112.651 315, 1112.224 315 C 1110.491 315, 1076.345 308.823, 1070.638 307.477 C 1060.023 304.974, 1061 302.740, 1061 329.500 M 576.500 312.960 C 563.424 315.729, 557.578 317.685, 547.693 322.602 C 536.005 328.415, 531.117 331.886, 521.171 341.433 C 499.960 361.792, 488.845 389.680, 488.860 422.500 C 488.870 443.503, 492.701 460.514, 501.247 477.500 C 509.400 493.704, 524.634 509.341, 541.070 518.374 C 575.927 537.532, 620.488 538.784, 655.500 521.590 C 684.323 507.435, 703.326 484.221, 710.883 453.933 C 717.880 425.889, 714.848 393.668, 702.961 369.740 C 689.062 341.762, 665.155 322.471, 634.277 314.317 C 625.704 312.053, 622.098 311.693, 605 311.395 C 588.718 311.111, 584.015 311.369, 576.500 312.960 M 883 348.500 C 883 368.588, 883.247 373, 884.371 373 C 885.251 373, 885.972 371.296, 886.382 368.250 C 887.850 357.339, 895.261 347.803, 904.795 344.554 C 908.249 343.377, 913.683 343, 927.178 343 L 945 343 944.978 421.250 C 944.957 495.398, 944.859 499.715, 943.095 503.599 C 940.922 508.384, 937.170 511.339, 931.241 512.935 C 928.708 513.617, 927 514.666, 927 515.539 C 927 516.796, 932.519 517, 966.500 517 C 999.694 517, 1006 516.776, 1006 515.600 C 1006 514.744, 1004.033 513.728, 1000.942 512.986 C 994.799 511.512, 990.332 507.940, 987.880 502.541 C 986.150 498.733, 986.043 494.020, 986.022 420.750 L 986 343 1003.962 343 C 1024.780 343, 1029.894 344.235, 1036.319 350.814 C 1040.158 354.746, 1044 363.097, 1044 367.511 C 1044 369.057, 1044.568 370, 1045.500 370 C 1046.790 370, 1047 366.765, 1047 346.883 L 1047 323.767 1044.750 324.407 C 1030.522 328.454, 1029.628 328.500, 965 328.500 C 903.468 328.500, 902.363 328.465, 893.671 326.250 C 888.815 325.012, 884.428 324, 883.921 324 C 883.385 324, 883 334.234, 883 348.500 M 1337.003 326.250 C 1336.479 327.488, 1326.314 350.550, 1314.416 377.500 C 1302.518 404.450, 1289.509 433.925, 1285.508 443 C 1259.941 500.994, 1258.159 504.494, 1251.723 509.392 C 1249.950 510.741, 1247.150 512.146, 1245.500 512.515 C 1239.721 513.807, 1239 514.146, 1239 515.567 C 1239 516.777, 1243.363 517, 1267 517 C 1290.894 517, 1295 516.786, 1295 515.539 C 1295 514.697, 1293.410 513.647, 1291.250 513.063 C 1285.881 511.612, 1283.321 509.503, 1281.974 505.421 C 1280.629 501.345, 1282.274 495.808, 1290.270 477.500 L 1294.637 467.500 1326.464 467.500 L 1358.290 467.500 1364.272 482.500 C 1372.748 503.758, 1372.354 509.016, 1362.005 512.692 C 1359.252 513.669, 1357 515.039, 1357 515.735 C 1357 516.735, 1365.796 517, 1399 517 C 1434.623 517, 1441 516.784, 1441 515.579 C 1441 514.787, 1439.562 513.849, 1437.750 513.457 C 1429.905 511.764, 1422.337 505.500, 1418.099 497.193 C 1415.454 492.010, 1378.648 410.147, 1357.437 362.273 C 1348.075 341.144, 1339.931 324.035, 1339.229 324.023 C 1338.529 324.010, 1337.528 325.012, 1337.003 326.250 M 578.785 326.978 C 566.923 329.480, 560.835 331.559, 552 336.125 C 536.149 344.318, 524.849 355.149, 515.981 370.648 C 507.048 386.261, 503 402.586, 503 423 C 503 450.885, 510.832 472.342, 527.360 489.742 C 536.121 498.965, 544.179 504.808, 555.373 510.053 C 583.388 523.182, 622.270 522.901, 649.288 509.377 C 667.682 500.169, 683.104 484.777, 691.015 467.730 C 705.782 435.912, 703.072 394.060, 684.418 365.833 C 671.068 345.633, 650.561 332.209, 625.137 327.028 C 612.067 324.364, 591.287 324.342, 578.785 326.978 M 1509.922 326.494 C 1493.043 329.679, 1480.813 334.598, 1468.244 343.259 C 1444.941 359.315, 1431.151 386.211, 1429.411 419 C 1426.481 474.179, 1460.674 513.672, 1516.181 519.222 C 1537.601 521.363, 1558.937 517.947, 1576.706 509.530 C 1588.586 503.902, 1596.602 498.195, 1605.250 489.209 L 1612 482.194 1612.002 461.347 C 1612.003 443.476, 1612.253 440.011, 1613.752 437.071 C 1616.054 432.555, 1619.724 429.981, 1624.837 429.295 C 1627.421 428.949, 1629 428.218, 1629 427.368 C 1629 426.235, 1622.563 426, 1591.500 426 C 1558.833 426, 1554 426.193, 1554 427.500 C 1554 428.464, 1554.982 429.008, 1556.750 429.022 C 1561.449 429.059, 1567.714 432.547, 1569.593 436.171 C 1571.824 440.474, 1572.691 460.324, 1571.149 471.784 C 1568.220 493.544, 1552.637 506.049, 1528.540 505.976 C 1513.351 505.929, 1503.999 502.115, 1493.887 491.844 C 1479.770 477.505, 1473.077 455.875, 1473.051 424.500 C 1473.025 394.084, 1480.181 371.575, 1494.881 355.834 C 1506.104 343.817, 1517.630 339.056, 1535.590 339.017 C 1563.632 338.957, 1585.276 355.386, 1594.519 383.750 C 1595.491 386.732, 1596.828 389, 1597.615 389 C 1598.757 389, 1599 384.697, 1599 364.437 L 1599 339.875 1592.677 337.007 C 1583.982 333.065, 1575.314 330.235, 1564.584 327.836 C 1552.521 325.138, 1521.187 324.369, 1509.922 326.494 M 1757.500 326.737 C 1752.550 328.001, 1741.134 328.345, 1692.250 328.705 C 1642.659 329.070, 1633 329.366, 1633 330.525 C 1633 331.337, 1634.550 332.191, 1636.750 332.590 C 1643.231 333.766, 1647.801 336.705, 1650.237 341.263 L 1652.500 345.500 1652.808 418.500 C 1652.977 458.650, 1652.835 493.840, 1652.492 496.700 C 1651.449 505.400, 1645.610 511.565, 1637.106 512.948 C 1634.801 513.323, 1633.402 514.149, 1633.187 515.265 C 1632.873 516.898, 1636.937 517, 1702.427 517 C 1740.692 517, 1772 516.836, 1772 516.635 C 1772 516.070, 1780.737 474.079, 1781.911 469 C 1783.394 462.583, 1783.267 460, 1781.469 460 C 1780.626 460, 1779.674 460.788, 1779.353 461.750 C 1775.292 473.916, 1766.125 487.440, 1757.770 493.591 C 1747.522 501.134, 1741.393 502.437, 1716 502.471 L 1694.500 502.500 1694.237 466.176 L 1693.975 429.852 1714.237 430.176 C 1732.912 430.475, 1734.825 430.674, 1738.653 432.721 C 1744.331 435.757, 1748.538 441.179, 1750.627 448.152 C 1751.605 451.417, 1752.957 454, 1753.689 454 C 1754.743 454, 1755 447.812, 1755 422.500 C 1755 395.862, 1754.779 391, 1753.571 391 C 1752.701 391, 1751.524 393.127, 1750.562 396.434 C 1748.464 403.653, 1743.599 409.816, 1737.535 412.936 C 1732.747 415.400, 1731.978 415.482, 1713.544 415.491 L 1694.500 415.500 1694.238 379.250 L 1693.975 343 1717.238 343.006 C 1730.032 343.009, 1742.091 343.453, 1744.035 343.993 C 1749.511 345.514, 1756.636 350.493, 1759.473 354.780 C 1760.888 356.919, 1762.823 361.889, 1763.773 365.827 C 1764.769 369.955, 1766.029 372.989, 1766.750 372.993 C 1767.715 372.998, 1768 367.537, 1768 349 L 1768 325 1765.750 325.102 C 1764.513 325.159, 1760.800 325.894, 1757.500 326.737 M 714 330.431 C 714 331.464, 715.344 332.191, 718.055 332.625 C 723.237 333.453, 727.838 336.565, 730.446 341.003 C 732.471 344.450, 732.500 345.613, 732.500 423 C 732.500 495.617, 732.370 501.738, 730.765 504.671 C 728.450 508.903, 723.788 512.085, 718.953 512.733 C 715.949 513.136, 715 513.712, 715 515.132 C 715 516.924, 716.571 517, 753.500 517 C 786.604 517, 792 516.795, 792 515.539 C 792 514.663, 790.295 513.624, 787.750 512.946 C 782.189 511.467, 777.132 507.560, 775.394 503.400 C 774.242 500.644, 774 486.405, 774 421.436 L 774 342.808 787.750 343.154 C 800.582 343.477, 801.808 343.681, 806.113 346.212 C 812.298 349.848, 816.322 354.637, 819.098 361.668 C 821.100 366.738, 821.401 369.263, 821.401 381 C 821.401 392.808, 821.107 395.245, 819.054 400.449 C 814.362 412.345, 803.505 420.468, 790.701 421.663 C 787.016 422.008, 784 422.649, 784 423.088 C 784 423.527, 786.525 426.275, 789.611 429.193 C 795.757 435.005, 797.928 438.841, 806.486 459 C 821.457 494.270, 829.689 504.509, 848.500 511.260 C 857.787 514.593, 866.505 515.849, 885.892 516.649 C 900.339 517.244, 902 517.146, 902 515.695 C 902 514.673, 900.618 513.701, 898.250 513.058 C 889.769 510.753, 882.916 505.669, 876.413 496.856 C 874.528 494.302, 867.994 483.502, 861.893 472.856 C 855.792 462.210, 849.248 451.384, 847.350 448.797 C 843.569 443.645, 835.380 435.928, 830.858 433.257 C 829.276 432.322, 828.111 431.168, 828.269 430.692 C 828.428 430.216, 830.954 428.983, 833.882 427.952 C 854.287 420.765, 866.324 400.945, 864.600 377.365 C 862.808 352.841, 850.841 338.635, 826.154 331.727 C 818.864 329.687, 816.018 329.569, 766.250 329.236 C 719.643 328.924, 714 329.053, 714 330.431 M 589.024 340.603 C 581.088 342.736, 575.326 346.377, 568.314 353.693 C 553.957 368.668, 546.006 393.195, 546.006 422.500 C 546.006 443.845, 549.397 460.273, 556.979 475.655 C 563.468 488.819, 570.860 496.607, 581.794 501.800 C 588.505 504.987, 590.567 505.476, 598.808 505.837 C 615.007 506.545, 627.129 501.535, 637.274 489.937 C 656.654 467.782, 663.204 420.353, 651.904 384 C 646.759 367.451, 635.780 351.472, 625.356 345.363 C 614.956 339.268, 600.863 337.422, 589.024 340.603 M 592.500 354.236 C 569.597 362.468, 555.728 400.150, 561.054 439.678 C 565.461 472.385, 580.675 492.205, 601.517 492.389 C 618.922 492.541, 632.305 479.233, 639.414 454.700 C 651.107 414.348, 637.739 364.529, 612.705 355.163 C 606.426 352.813, 597.586 352.408, 592.500 354.236 M 1147.286 354.388 C 1136.128 358.041, 1128.337 365.437, 1121.945 378.446 C 1112.353 397.970, 1109.913 425.591, 1115.467 451.792 C 1121.539 480.438, 1138.225 495.816, 1159.221 492.118 C 1170.744 490.088, 1177.401 485.142, 1180.573 476.252 C 1182.128 471.895, 1182.503 446.343, 1181.045 444.039 C 1180.398 443.016, 1177.933 442.508, 1172.811 442.344 L 1165.500 442.110 1165.224 427.055 L 1164.948 412 1194.474 412 L 1224 412 1224 407.542 L 1224 403.084 1216.348 402.792 L 1208.696 402.500 1206.812 394.500 C 1202.336 375.495, 1192.388 362.215, 1178.352 356.509 C 1170.041 353.130, 1154.393 352.062, 1147.286 354.388 M 913.380 356.925 C 908.653 357.699, 904.670 360.037, 902.578 363.264 C 901.363 365.139, 899.982 371.093, 897.364 385.750 C 896.980 387.897, 896.527 388, 887.481 388 L 878 388 878 390.790 C 878 401.294, 870.123 417.906, 860.631 427.421 C 855.970 432.093, 854.015 434.727, 854.613 435.525 C 855.101 436.175, 857.149 438.896, 859.164 441.571 C 861.179 444.247, 868.154 455.656, 874.664 466.926 C 888.928 491.619, 894.511 498.160, 902.799 499.893 C 912.321 501.882, 928.352 500.621, 930.183 497.738 C 930.615 497.057, 930.976 464.887, 930.985 426.250 L 931 356 924.250 356.125 C 920.538 356.194, 915.646 356.554, 913.380 356.925 M 1708.750 356.542 C 1708.338 356.977, 1708 367.383, 1708 379.667 L 1708 402 1719.100 402 L 1730.200 402 1733.456 398.744 C 1736.083 396.117, 1737.119 393.763, 1738.813 386.580 C 1739.968 381.680, 1741.495 377.303, 1742.206 376.851 C 1742.918 376.400, 1745.247 376.024, 1747.382 376.015 L 1751.263 376 1750.726 371.993 C 1749.909 365.901, 1746.838 360.731, 1742.861 358.751 C 1740.215 357.433, 1735.662 356.847, 1724.424 356.376 C 1716.216 356.032, 1709.162 356.107, 1708.750 356.542 M 788 382.376 L 788 408 790.250 407.978 C 793.934 407.942, 800.552 404.438, 802.737 401.367 C 809.917 391.275, 809.578 369.156, 802.117 360.805 C 799.775 358.183, 798.442 357.618, 793.668 357.222 L 788 356.752 788 382.376 M 1313.690 421.750 C 1306.710 438.113, 1300.999 451.837, 1301 452.250 C 1301 452.663, 1312.523 453, 1326.607 453 C 1346.690 453, 1352.107 452.730, 1351.719 451.750 C 1351.447 451.063, 1346.281 438.350, 1340.239 423.500 C 1334.198 408.650, 1328.942 395.488, 1328.560 394.250 C 1328.178 393.012, 1327.531 392, 1327.123 392 C 1326.715 392, 1320.670 405.387, 1313.690 421.750 M 392.614 427.100 C 381.767 439.254, 373.029 449.748, 373.196 450.419 C 373.363 451.090, 380.250 462.052, 388.500 474.779 C 403.352 497.691, 403.535 497.919, 407.027 497.960 C 408.968 497.982, 411.555 497.299, 412.777 496.443 L 415 494.887 415 449.943 C 415 413.179, 414.758 405, 413.668 405 C 412.935 405, 403.461 414.945, 392.614 427.100 M 1323.693 433.750 C 1322.756 436.363, 1321.992 438.837, 1321.995 439.250 C 1321.998 439.663, 1324.025 440, 1326.500 440 C 1329.367 440, 1331 439.559, 1331 438.783 C 1331 436.301, 1327.688 429, 1326.562 429 C 1325.920 429, 1324.629 431.137, 1323.693 433.750 M 1708.231 466.250 L 1708.500 488.500 1722.500 488.492 C 1740.554 488.483, 1745.090 487.070, 1753.240 478.920 C 1756.731 475.429, 1759 472.301, 1759 470.980 C 1759 468.872, 1758.694 468.811, 1749.819 469.150 L 1740.638 469.500 1739.322 461.717 C 1737.873 453.142, 1735.037 446.625, 1732.062 445.033 C 1731 444.465, 1725.143 444, 1719.047 444 L 1707.962 444 1708.231 466.250 M 1430 488.114 C 1430 490.347, 1434.317 496.832, 1436.626 498.067 C 1439.263 499.479, 1440.958 498.611, 1439.465 496.614 C 1438.934 495.905, 1437.150 493.468, 1435.500 491.200 C 1432.621 487.242, 1430 485.771, 1430 488.114" stroke="none" fill="#000000" fill-rule="evenodd"/><path d="M 149 21 C 149 36.310, 148.707 41.010, 147.750 41.044 C 136.907 41.422, 125.524 43.047, 124.160 44.412 C 121.844 46.728, 121.421 55.829, 121.999 91 L 122.500 121.500 132.601 106.500 C 138.157 98.250, 149.799 81.150, 158.472 68.500 C 167.146 55.850, 174.479 44.892, 174.767 44.149 C 175.502 42.256, 173.154 41.033, 168.750 41.015 L 165 41 165 21 L 165 1 157 1 L 149 1 149 21 M 285 19.500 L 285 38 335.500 38 C 385.333 38, 386 37.974, 386 36 C 386 34.128, 386.625 34.008, 395.750 34.124 C 401.113 34.193, 408.517 34.530, 412.205 34.874 L 418.909 35.500 445.205 59.933 C 459.667 73.370, 487.857 99.695, 507.848 118.433 C 527.840 137.170, 544.624 152.657, 545.146 152.849 C 545.738 153.067, 545.984 139.799, 545.798 117.634 C 545.545 87.469, 545.270 81.839, 543.985 80.555 C 542.936 79.507, 539.311 78.834, 532.214 78.369 L 521.959 77.697 522.229 58.098 L 522.500 38.500 587.750 38.243 L 653 37.986 653 53.493 C 653 63.164, 653.376 69, 654 69 C 654.550 69, 655 68.558, 655 68.019 C 655 65.895, 668.893 52.413, 675.636 47.993 C 696.283 34.460, 719.736 31.832, 775 36.857 C 789.025 38.133, 801.562 39.383, 802.859 39.635 C 805.075 40.065, 805.182 40.410, 804.619 45.297 C 804.289 48.158, 802.655 63.325, 800.987 79 C 799.319 94.675, 797.628 110.425, 797.227 114 L 796.500 120.500 778.372 120.772 C 757.768 121.081, 759.061 121.667, 758.998 112 C 758.953 105.108, 756.500 96.167, 753.867 93.303 C 752.565 91.887, 749.475 89.813, 747 88.693 C 737.779 84.524, 721.240 86.947, 718.033 92.938 C 714.765 99.044, 717.514 101.530, 748.500 120.492 C 788.902 145.215, 799.444 153.406, 808.643 167.224 C 817.489 180.512, 820.965 192.862, 820.965 211 C 820.965 224.233, 819.314 233.260, 814.877 244.289 C 813.154 248.572, 811.925 252.258, 812.145 252.479 C 813.154 253.487, 828.279 251.578, 829.579 250.278 C 830.784 249.073, 831 236.279, 831 166.039 C 831 88.649, 830.885 83.081, 829.250 81.077 C 827.741 79.228, 826.089 78.848, 817.250 78.316 L 807 77.698 807 58.491 L 807 39.285 813.147 38.642 C 816.527 38.289, 850.165 37.997, 887.897 37.993 C 964.892 37.985, 959.183 38.450, 985 30.077 C 991.875 27.847, 997.837 26.018, 998.250 26.011 C 998.663 26.005, 999 48.725, 999 76.500 L 999 127 991.500 127 L 984 127 984 139 C 984 145.600, 984.388 151, 984.862 151 C 985.337 151, 989.070 147.512, 993.159 143.250 C 1010.707 124.955, 1114.882 23, 1116.026 23 C 1116.718 23, 1136.008 41.610, 1158.892 64.355 C 1181.776 87.101, 1212.096 117.138, 1226.269 131.105 L 1252.037 156.500 1252.019 204.250 L 1252 252 1256.809 252 C 1259.454 252, 1262.491 251.361, 1263.559 250.579 C 1265.458 249.190, 1265.493 247.358, 1265.183 166.329 C 1265.008 120.773, 1264.654 82.754, 1264.395 81.842 C 1263.730 79.503, 1261.884 79.004, 1251.317 78.310 L 1242 77.698 1242 57.842 L 1242 37.986 1307.250 38.243 L 1372.500 38.500 1372.771 58.103 L 1373.041 77.707 1362.894 78.266 C 1355.430 78.677, 1352.317 79.254, 1351.123 80.448 C 1349.657 81.913, 1349.474 89.780, 1349.232 161.535 L 1348.965 241 1351.732 240.974 C 1360.016 240.897, 1374.425 238.813, 1379.309 236.985 C 1391.374 232.472, 1399.189 221.644, 1404.562 202 C 1405.991 196.775, 1407.335 191.938, 1407.549 191.250 C 1407.835 190.328, 1411.622 190, 1421.994 190 L 1436.050 190 1435.775 136.035 C 1435.535 88.881, 1435.304 81.875, 1433.951 80.522 C 1432.874 79.445, 1429.445 78.779, 1422.701 78.336 L 1413 77.698 1413 57.842 L 1413 37.986 1478.250 38.243 L 1543.500 38.500 1543.771 58.103 L 1544.041 77.707 1533.796 78.271 C 1519.502 79.059, 1520 78.214, 1520 101.670 C 1520 112.408, 1520.378 119.885, 1520.904 119.559 C 1522.064 118.843, 1548.910 81.397, 1549.654 79.459 C 1549.985 78.596, 1549.625 78, 1548.773 78 C 1547.566 78, 1547.336 74.827, 1547.357 58.509 L 1547.383 39.019 1550.441 38.473 C 1552.124 38.173, 1575.325 38.056, 1602 38.213 L 1650.500 38.500 1650.770 58.039 L 1651.041 77.578 1639.770 78.639 C 1623.153 80.204, 1618.747 82.865, 1607.202 98.308 C 1590.567 120.560, 1572.668 145.533, 1572.680 146.475 C 1572.696 147.747, 1626.743 232.524, 1632.153 239.764 C 1638.840 248.714, 1643.262 250.689, 1660.750 252.536 L 1667 253.196 1667 273.098 L 1667 293 1642.539 293 C 1629.086 293, 1613.448 292.501, 1607.789 291.892 C 1584.186 289.351, 1564.090 281.413, 1551.318 269.588 C 1547.404 265.965, 1543.932 263, 1543.601 263 C 1543.271 263, 1543 269.750, 1543 278 L 1543 293 1392 293 C 1292 293, 1241 292.662, 1241 292 C 1241 291.407, 1237.333 291, 1232 291 C 1227.050 291, 1223 291.216, 1223 291.479 C 1223 291.743, 1225.051 293.849, 1227.557 296.159 C 1230.064 298.470, 1234.332 303.147, 1237.042 306.552 C 1255.755 330.070, 1263.885 357.453, 1263.969 397.250 C 1263.995 409.681, 1264.236 412, 1265.500 412 C 1266.756 412, 1266.998 414.077, 1266.986 424.750 C 1266.968 442.284, 1267.259 441.641, 1259.053 442.228 C 1255.324 442.495, 1251.761 443.029, 1251.136 443.416 C 1250.364 443.893, 1249.998 449.304, 1249.994 460.309 C 1249.987 481.461, 1249.088 486.750, 1244.423 493.104 C 1242.409 495.849, 1241.037 498.370, 1241.374 498.708 C 1242.421 499.755, 1246.104 495.722, 1248.606 490.786 C 1251.876 484.339, 1296.122 384.713, 1325.175 318.384 L 1329.168 309.268 1338.298 308.747 C 1343.319 308.461, 1347.894 308.413, 1348.464 308.641 C 1349.034 308.869, 1360.618 334.130, 1374.207 364.777 C 1429.840 490.252, 1432.347 495.592, 1436.855 498.255 C 1438.479 499.215, 1440.077 500, 1440.404 500 C 1441.888 500, 1440.763 497.126, 1438.417 494.924 C 1436.996 493.591, 1433.886 489.350, 1431.505 485.500 C 1409.051 449.194, 1409.978 394.460, 1433.650 358.804 C 1439.617 349.816, 1452.351 336.845, 1460.877 331.071 C 1469.286 325.377, 1483.673 318.683, 1493 316.124 C 1518.951 309.007, 1552.210 309.199, 1577.803 316.616 C 1588.307 319.660, 1602.953 325.683, 1608.750 329.342 L 1613 332.025 1613 367.513 L 1613 403 1599.151 403 L 1585.303 403 1583.027 394.387 C 1578.292 376.460, 1570.012 364.646, 1557.957 358.615 C 1538.744 349.003, 1517.708 351.786, 1505.073 365.611 C 1494.055 377.666, 1488.194 395.354, 1487.287 419.286 C 1485.903 455.779, 1495.077 480.005, 1513.766 489.205 C 1519.554 492.055, 1521.233 492.412, 1528.888 492.424 C 1541.829 492.444, 1550.286 487.984, 1555.296 478.500 C 1557.105 475.075, 1557.458 472.415, 1557.749 460 C 1557.936 452.025, 1557.685 444.905, 1557.191 444.178 C 1556.603 443.312, 1553.571 442.766, 1548.397 442.595 L 1540.500 442.334 1540.224 427.167 L 1539.948 412 1589.474 412 L 1639 412 1638.986 382.250 C 1638.979 365.887, 1638.709 351.519, 1638.388 350.319 C 1637.636 347.515, 1636.247 347.034, 1626.796 346.305 L 1619 345.704 1619 330.352 L 1619 315 1679.250 314.980 C 1713.830 314.969, 1742.482 314.536, 1746.500 313.963 C 1750.350 313.415, 1759.047 311.624, 1765.827 309.983 C 1772.606 308.342, 1779.024 307, 1780.088 307 C 1781.973 307, 1782.016 308.029, 1781.761 347.250 L 1781.500 387.500 1775.250 387.154 L 1769 386.809 1768.999 416.654 L 1768.997 446.500 1783.999 446.200 L 1799 445.900 1799 223.450 L 1799 1 1042 1 L 285 1 285 19.500 M 20 20.981 C 20 23.001, 20.599 23.252, 28.453 24.526 C 37.458 25.986, 44.654 32.271, 47.150 40.856 C 49.151 47.740, 49.146 271.672, 47.144 277.336 C 44.245 285.539, 36.846 291.051, 26.750 292.531 C 23.008 293.079, 22 293.627, 22 295.114 C 22 296.939, 23.747 297, 75.833 297 C 105.442 297, 129.936 296.731, 130.264 296.402 C 131.466 295.201, 129.726 293, 127.575 293 C 122.147 293, 114.434 289.697, 110.368 285.632 C 102.152 277.415, 102.615 284.249, 102.227 165.500 C 101.853 51.019, 102.087 44.310, 106.761 35.642 C 110.131 29.391, 116.232 25.363, 124 24.260 C 128.648 23.600, 129.550 23.132, 129.820 21.240 L 130.139 19 75.070 19 C 20.843 19, 20 19.030, 20 20.981 M 184.180 21.226 C 184.432 22.980, 185.389 23.603, 188.690 24.164 C 200.396 26.152, 202.827 34.849, 195.311 47.852 C 193.144 51.603, 127.826 147.786, 116.183 164.372 C 112.644 169.415, 112.221 170.546, 113.195 172.372 C 114.297 174.440, 174.477 271.801, 198.871 310.981 C 205.542 321.695, 211 331.033, 211 331.731 C 211 332.587, 209.374 333, 206 333 C 199.429 333, 199.016 335.475, 205.427 336.437 C 210.936 337.263, 215.766 340.441, 218.446 345.003 C 220.469 348.447, 220.500 349.639, 220.500 424 C 220.500 494.793, 220.388 499.705, 218.701 502.794 C 216.475 506.873, 211.900 509.742, 206.283 510.585 C 203.587 510.989, 202 511.745, 202 512.625 C 202 513.803, 207.992 513.982, 240 513.762 C 276.246 513.512, 284.387 512.813, 274.633 510.786 C 268.314 509.473, 264.172 507.013, 261.766 503.144 C 259.513 499.521, 259.498 499.249, 259.211 455.250 C 258.962 417.143, 259.123 411, 260.370 411 C 261.167 411, 266.472 418.197, 272.160 426.994 C 292.211 458.008, 337.741 527.784, 353.240 551.250 L 368.926 575 402.944 575 L 436.962 575 426.591 559.250 C 388.841 501.922, 355.004 449.630, 355.024 448.651 C 355.056 447.099, 425.890 368.587, 427.629 368.177 C 428.780 367.905, 429 378.094, 429 431.561 C 429 477.288, 428.670 496.369, 427.831 499.171 C 426.099 504.951, 420.292 509.760, 414.041 510.589 C 410.762 511.024, 409 511.737, 409 512.629 C 409 513.768, 415.858 514, 449.500 514 C 483.359 514, 490 513.773, 490 512.614 C 490 511.747, 488.393 510.986, 485.717 510.585 C 479.712 509.684, 475.462 506.792, 472.790 501.789 L 470.500 497.500 470.192 430 C 469.872 359.934, 470.343 348.745, 473.816 344.062 C 476.639 340.254, 480.417 337.839, 485.617 336.519 C 488.247 335.851, 490.571 334.786, 490.783 334.152 C 491.067 333.298, 482.618 333, 458.124 333 L 425.081 333 421.656 336.750 C 419.772 338.813, 405.691 354.683, 390.365 372.017 C 346.208 421.961, 341.641 427, 340.530 427 C 339.542 427, 269.215 317.954, 236.425 265.579 C 215.444 232.066, 175.620 168.610, 167.655 156 C 164.007 150.225, 161.018 144.934, 161.011 144.241 C 160.998 142.764, 216.209 59.691, 226.012 46.440 C 236.336 32.484, 246.694 25.925, 262.250 23.495 C 265.105 23.049, 266 22.443, 266 20.955 C 266 19.047, 265.016 19, 224.930 19 L 183.861 19 184.180 21.226 M 1 158.533 L 1 275.565 8.250 275.261 C 21.428 274.706, 26.077 273.923, 28.082 271.918 C 29.949 270.051, 30 267.103, 30 160.625 C 30 100.469, 29.712 49.809, 29.359 48.047 C 28.505 43.775, 26.034 42.922, 12.250 42.139 L 0.999 41.500 1 158.533 M 249.901 48.709 C 247.643 50.748, 243.895 54.911, 241.571 57.959 C 234.788 66.855, 184 142.861, 184 144.116 C 184 145.179, 192.101 158.583, 215.114 195.595 C 220.276 203.898, 231.475 221.997, 240 235.816 C 248.525 249.635, 255.838 260.955, 256.250 260.971 C 256.663 260.987, 257 259.254, 257 257.119 L 257 253.239 267.455 252.526 C 275.042 252.009, 278.265 251.386, 279.205 250.254 C 280.234 249.014, 280.566 232.865, 280.821 171.597 C 281.142 94.427, 280.886 83.569, 278.681 80.607 C 277.802 79.428, 274.874 78.853, 267.250 78.361 L 257 77.699 257 61.350 C 257 42.719, 256.842 42.438, 249.901 48.709 M 1056.644 107.096 L 998 165.191 998 191.654 C 998 206.209, 998.501 221.353, 999.114 225.308 C 1002.820 249.239, 1015.125 265.679, 1037.476 276.559 C 1054.517 284.856, 1072.037 289.182, 1120.016 296.943 C 1163.570 303.987, 1176.394 307.194, 1192.619 315.096 C 1202.827 320.068, 1216 330.487, 1216 333.589 C 1216 335.560, 1214.911 335.403, 1205.006 332.002 C 1200.204 330.353, 1190.700 328.053, 1183.887 326.891 C 1168.121 324.202, 1142.651 324.640, 1128.936 327.836 C 1103.693 333.718, 1084.366 346.576, 1071.571 365.998 C 1049.682 399.223, 1049.973 450.388, 1072.236 482.831 C 1073.870 485.213, 1077.741 489.655, 1080.837 492.702 C 1104.049 515.546, 1141.152 524.815, 1178.500 517.099 C 1197.897 513.091, 1215.568 503.477, 1228.750 489.758 L 1236 482.213 1236.004 460.857 C 1236.007 441.452, 1236.186 439.208, 1237.956 436.304 C 1240.482 432.161, 1243.944 429.951, 1248.962 429.278 C 1251.448 428.945, 1253 428.211, 1253 427.368 C 1253 426.235, 1246.640 426, 1216 426 C 1185.309 426, 1179 426.234, 1179 427.372 C 1179 428.198, 1180.581 428.997, 1182.974 429.380 C 1188.902 430.328, 1193.606 434.935, 1194.925 441.087 C 1196.317 447.577, 1196.308 467.964, 1194.911 475.526 C 1192.093 490.765, 1181.045 501.652, 1164.879 505.119 C 1161.929 505.752, 1155.299 506.041, 1149.807 505.777 C 1141.069 505.356, 1139.211 504.913, 1132.750 501.708 C 1119.864 495.316, 1110.722 483.732, 1105.065 466.629 C 1092.150 427.582, 1098.765 378.307, 1119.953 355.729 C 1130.718 344.258, 1142.688 339.152, 1159 339.075 C 1181.193 338.970, 1198.534 348.050, 1210.177 365.874 C 1212.845 369.958, 1216.067 376.650, 1217.399 380.874 C 1218.721 385.068, 1220.185 388.275, 1220.652 388 C 1221.118 387.725, 1221.330 379.512, 1221.123 369.750 C 1220.787 353.912, 1220.920 352, 1222.363 352 C 1224.109 352, 1229.395 358.723, 1233.416 366.057 C 1237.169 372.901, 1240.952 387.329, 1241.771 397.919 C 1242.243 404.013, 1242.941 407.485, 1243.750 407.753 C 1244.702 408.068, 1245 405.412, 1245 396.623 C 1245 342.672, 1226.725 310.853, 1183.250 289.108 L 1173 283.982 1173 238.491 C 1173 213.070, 1172.613 193, 1172.123 193 C 1171.140 193, 1147.953 210.696, 1146.696 212.406 C 1146.253 213.008, 1146.048 227.113, 1146.239 243.750 C 1146.621 276.931, 1146.955 275.262, 1140.468 272.551 L 1137 271.102 1137 243.774 L 1137 216.446 1125.506 208.973 C 1119.184 204.863, 1114.009 201.162, 1114.006 200.750 C 1114.003 200.338, 1113.100 200, 1112 200 C 1110.042 200, 1110 200.667, 1110 232.111 L 1110 264.223 1106.258 263.521 C 1104.199 263.134, 1102.174 262.608, 1101.758 262.350 C 1101.341 262.093, 1101 245.970, 1101 226.523 L 1101 191.163 1088.008 181.582 C 1080.863 176.312, 1074.788 172, 1074.508 172 C 1074.229 172, 1074 190.450, 1074 213 C 1074 235.550, 1073.624 254, 1073.165 254 C 1072.706 254, 1069.443 253.060, 1065.915 251.912 C 1049.691 246.631, 1040.008 239.803, 1035.407 230.399 C 1033.039 225.559, 1032.580 222.998, 1031.735 209.897 C 1031.204 201.662, 1031.060 191.004, 1031.414 186.213 L 1032.058 177.500 1073.260 136.750 C 1095.920 114.338, 1115.152 96, 1115.996 96 C 1116.841 96, 1136.537 115.025, 1159.766 138.277 L 1202 180.555 1202 226.277 L 1202 272 1217.500 272 L 1233 272 1233 218.747 L 1233 165.494 1174.747 107.247 C 1142.708 75.211, 1116.222 49, 1115.891 49 C 1115.559 49, 1088.898 75.143, 1056.644 107.096 M 974.988 52.947 C 974.157 53.434, 969.720 54.545, 965.128 55.416 C 958.099 56.750, 947.347 57.001, 897.140 57.009 C 864.338 57.013, 835.138 57.301, 832.250 57.648 C 825.721 58.432, 825.246 60.542, 831.441 61.240 C 838.249 62.008, 844.380 66.103, 847.154 71.736 L 849.500 76.500 849.791 163.500 C 849.997 225.083, 849.756 251.815, 848.966 255 C 846.845 263.552, 839.309 269.924, 831.250 269.978 C 828.674 269.995, 828 270.415, 828 272 C 828 273.971, 828.667 274, 873.500 274 C 913.018 274, 919 273.805, 919 272.519 C 919 271.705, 917.763 270.784, 916.250 270.474 C 905.005 268.165, 900.111 264.709, 897.584 257.292 C 896.246 253.364, 896 246.614, 896 213.755 L 896 174.867 919.250 175.184 C 940.885 175.478, 942.783 175.651, 946.568 177.678 C 954.811 182.090, 960.109 190.685, 961.202 201.423 C 961.366 203.030, 962.063 204.530, 962.750 204.756 C 963.735 205.080, 964 197.202, 964 167.583 C 964 145.398, 963.623 130, 963.081 130 C 962.575 130, 961.155 133.392, 959.924 137.537 C 957.173 146.804, 952.370 152.692, 944.788 156.093 C 939.847 158.310, 938.072 158.488, 917.750 158.817 L 896 159.169 896 115.478 L 896 71.787 922.750 72.219 C 947.707 72.621, 949.894 72.804, 955.381 74.946 C 966.188 79.165, 972.559 86.968, 975.883 100.058 C 979.332 113.641, 980 110.400, 980 80.083 C 980 53.992, 979.876 52.002, 978.250 52.030 C 977.288 52.047, 975.820 52.459, 974.988 52.947 M 713.539 54.112 C 688.433 57.770, 671.408 71.044, 664.303 92.500 C 662.058 99.279, 661.642 102.332, 661.577 112.500 C 661.482 127.253, 663.866 135.642, 671.318 146.784 C 677.389 155.860, 684.590 161.962, 705.500 175.748 C 714.300 181.550, 727.277 190.100, 734.337 194.748 C 758.633 210.744, 765.640 219.775, 764.791 234 C 764.357 241.285, 762.442 245.955, 757.545 251.677 C 745.896 265.286, 717.340 268.185, 697.706 257.753 C 682.114 249.468, 673.515 236.104, 670.837 215.995 C 670.110 210.533, 669.212 207.086, 668.567 207.285 C 666.662 207.872, 661.124 226.314, 659.948 235.985 C 658.560 247.403, 659.433 259.178, 661.827 261.340 C 665.284 264.460, 682.865 272.105, 692.500 274.678 C 701.715 277.138, 704.071 277.351, 722.500 277.393 C 745.504 277.444, 751.334 276.418, 764.673 269.969 C 789.273 258.075, 802.027 237.950, 801.985 211.090 C 801.962 195.721, 799.257 186.975, 790.766 174.811 C 785.410 167.137, 776.823 160.520, 753.311 145.952 C 701.688 113.965, 698 110.668, 698 96.500 C 698 87.161, 703.204 78.309, 711.581 73.400 C 724.642 65.745, 746.358 66.159, 760.298 74.329 C 768.809 79.317, 773.856 86.569, 776.102 97.038 C 778.094 106.327, 779.384 102.409, 781.847 79.598 C 783.137 67.642, 784.037 57.704, 783.846 57.512 C 783.655 57.321, 772.800 56.228, 759.725 55.082 C 734.827 52.901, 723.485 52.663, 713.539 54.112 M 407.335 56.250 C 407.638 57.487, 408.698 63.900, 409.689 70.500 C 411.318 81.344, 411.492 90.740, 411.496 168 L 411.500 253.500 408.702 259.198 C 405.832 265.043, 402.003 268.318, 396.750 269.422 C 395.238 269.740, 392.875 270.234, 391.500 270.519 C 390.125 270.805, 389 271.705, 389 272.519 C 389 273.805, 394.982 274, 434.500 274 C 474.018 274, 480 273.805, 480 272.519 C 480 271.705, 478.762 270.784, 477.250 270.474 C 466.379 268.242, 461.474 264.929, 458.390 257.737 C 456.742 253.893, 456.539 249.228, 456.204 207.500 C 455.792 156.165, 456.425 137, 458.530 137 C 459.887 137, 475.346 150.863, 521.518 193.483 C 535.828 206.692, 560.803 229.711, 577.018 244.635 C 593.233 259.559, 607.822 273.171, 609.437 274.885 C 612.505 278.138, 615.645 279.124, 614.646 276.519 C 614.333 275.705, 613.281 268.618, 612.307 260.769 C 610.743 248.162, 610.535 236.776, 610.518 163 C 610.501 84.889, 610.617 79.164, 612.315 74.297 C 615.125 66.240, 619.726 62.902, 631.321 60.509 C 632.917 60.179, 633.966 59.399, 633.738 58.713 C 633.431 57.791, 622.362 57.438, 587.592 57.240 C 544.647 56.996, 541.870 57.086, 542.183 58.714 C 542.407 59.876, 543.890 60.682, 546.682 61.159 C 554.531 62.499, 559.443 66.287, 562.702 73.514 C 564.356 77.180, 564.524 82.258, 564.801 136.833 C 565.059 187.523, 564.897 196.118, 563.691 195.833 C 562.453 195.541, 516.249 152.696, 435.760 77.204 C 411.519 54.468, 405.878 50.310, 407.335 56.250 M 387 66.652 L 387 77.705 377.250 78.389 C 370.678 78.851, 367.011 79.563, 366 80.573 C 364.690 81.881, 364.500 92.724, 364.500 165.952 C 364.500 212.087, 364.874 250.208, 365.331 250.667 C 365.787 251.125, 371.187 251.642, 377.331 251.815 C 386.021 252.061, 388.944 251.801, 390.500 250.646 C 392.472 249.182, 392.500 248, 392.500 167.331 C 392.500 92.316, 392.341 84.334, 390.589 71.500 C 389.538 63.800, 388.300 57.072, 387.839 56.550 C 387.377 56.028, 387 60.574, 387 66.652 M 276.500 58 C 275.401 59.778, 276.857 60.724, 281.495 61.247 C 287.346 61.906, 293.431 65.965, 295.939 70.880 C 297.027 73.013, 298.383 77.625, 298.951 81.129 C 300.352 89.765, 300.330 247.837, 298.926 254 C 296.794 263.366, 291.297 268.551, 282.109 269.865 C 278.878 270.328, 277.424 271.035, 277.188 272.261 C 276.874 273.893, 279.669 274, 322.427 274 C 362.009 274, 368 273.805, 368 272.519 C 368 271.152, 367.060 270.783, 360 269.376 C 355.660 268.512, 350.122 264.153, 347.770 259.749 L 345.500 255.500 345.196 170 C 344.982 109.488, 345.223 82.746, 346.022 78.500 C 347.924 68.395, 352.678 63.302, 361.931 61.454 C 367.800 60.282, 369.475 58.628, 365.791 57.641 C 361.779 56.566, 277.176 56.906, 276.500 58 M 1261.506 57.990 C 1260.425 59.739, 1262.002 60.999, 1265.309 61.028 C 1269.840 61.068, 1277.107 65.066, 1279.752 68.975 C 1284.535 76.041, 1284.500 75.333, 1284.500 166 C 1284.500 234.504, 1284.234 252.416, 1283.160 256.107 C 1280.907 263.854, 1275.040 268.588, 1266.109 269.865 C 1262.878 270.328, 1261.424 271.035, 1261.188 272.261 C 1260.872 273.901, 1265.213 274, 1337.344 274 L 1413.834 274 1414.836 269.250 C 1418.152 253.530, 1426.080 208.747, 1425.627 208.294 C 1424.201 206.867, 1422.270 209.309, 1420.614 214.635 C 1413.834 236.432, 1397.213 252.672, 1376.745 257.498 C 1372.336 258.538, 1364.537 258.975, 1350.220 258.985 L 1329.939 259 1330.220 168.250 C 1330.482 83.400, 1330.617 77.241, 1332.298 73.514 C 1335.650 66.080, 1340.714 62.304, 1348.903 61.133 C 1352.011 60.688, 1353.500 59.993, 1353.500 58.988 C 1353.500 57.696, 1347.472 57.466, 1307.815 57.240 C 1277.854 57.069, 1261.916 57.328, 1261.506 57.990 M 1432 59 C 1432 60.585, 1432.674 61.005, 1435.250 61.022 C 1439.780 61.053, 1446.093 64.134, 1449.205 67.832 C 1454.646 74.299, 1454.500 71.556, 1454.500 167 L 1454.500 255.500 1452.278 259.655 C 1448.791 266.177, 1445.357 268.296, 1434.750 270.474 C 1433.237 270.784, 1432 271.705, 1432 272.519 C 1432 273.805, 1437.982 274, 1477.500 274 C 1522.333 274, 1523 273.971, 1523 272 C 1523 270.415, 1522.326 269.995, 1519.750 269.978 C 1515.215 269.947, 1508.905 266.865, 1505.783 263.154 C 1500.933 257.390, 1500.850 255.581, 1501.186 163 L 1501.500 76.500 1503.871 71.684 C 1506.347 66.656, 1511.357 62.559, 1516.250 61.561 C 1517.763 61.252, 1520.125 60.766, 1521.500 60.481 C 1522.875 60.195, 1524 59.295, 1524 58.481 C 1524 57.194, 1517.959 57, 1478 57 C 1432.667 57, 1432 57.029, 1432 59 M 1567 58.960 C 1567 60.457, 1567.651 61, 1569.444 61 C 1573.374 61, 1577.400 65.145, 1577.400 69.191 C 1577.400 73.875, 1575.330 77.169, 1551.395 110.565 C 1522.570 150.783, 1508.046 171.393, 1508.021 172.112 C 1508.003 172.645, 1536.861 218.169, 1551.253 240.309 C 1561.141 255.520, 1574.939 265.433, 1592.500 269.943 C 1604.323 272.980, 1613.634 273.935, 1631.750 273.969 C 1644.657 273.994, 1648 273.725, 1648 272.664 C 1648 271.876, 1645.435 270.618, 1641.750 269.598 C 1629.727 266.270, 1621.669 259.156, 1610.488 242 C 1592.572 214.510, 1549 146.193, 1549 145.592 C 1549 143.598, 1596.262 80.547, 1602.135 74.705 C 1609.473 67.407, 1617.825 62.719, 1626.318 61.133 C 1631.435 60.177, 1632.776 59.443, 1631.585 58.250 C 1631.173 57.837, 1616.473 57.370, 1598.918 57.210 C 1567.364 56.924, 1567 56.944, 1567 58.960 M 635.826 78.724 C 633.805 78.937, 631.555 79.831, 630.826 80.710 C 629.748 82.010, 629.505 97.825, 629.526 165.404 L 629.552 248.500 632.776 272.480 C 634.549 285.669, 636 296.807, 636 297.230 C 636 297.654, 629.464 298, 621.475 298 L 606.949 298 588.770 281.250 C 578.772 272.038, 564.946 259.353, 558.046 253.063 C 540.930 237.459, 514.056 212.700, 493.667 193.750 C 484.347 185.087, 476.275 178, 475.730 178 C 475.141 178, 474.990 179.521, 475.358 181.750 C 475.699 183.813, 475.983 200.207, 475.989 218.183 C 475.999 248.450, 476.129 250.901, 477.750 251.355 C 478.712 251.624, 483.887 252.147, 489.250 252.516 L 499 253.187 499 273.093 L 499 293 387.500 293 C 317.935 293, 276 293.356, 276 293.948 C 276 294.469, 278.631 299.081, 281.848 304.198 C 285.064 309.314, 299.086 332.175, 313.009 355 C 326.932 377.825, 339.436 398.274, 340.796 400.443 L 343.269 404.386 345.232 401.943 C 346.312 400.599, 363.225 381.387, 382.818 359.250 L 418.441 319 461.720 319 L 505 319 505 334 L 505 349 498.565 349 C 491.914 349, 487.098 350.248, 485.786 352.313 C 485.370 352.966, 485.024 385.327, 485.015 424.227 L 485 494.954 487.250 496.407 C 488.488 497.206, 492.762 498.174, 496.750 498.559 L 504 499.258 504 513.129 L 504 527 463.500 527 C 441.225 527, 423 527.195, 423 527.434 C 423 527.672, 429.979 538.472, 438.509 551.434 L 454.017 575 1126.509 575 L 1799 575 1798.912 516.750 L 1798.825 458.500 1794.470 478 C 1792.075 488.725, 1788.632 504.813, 1786.819 513.750 L 1783.522 530 1701.261 530 L 1619 530 1619 515.629 L 1619 501.258 1627.075 500.554 C 1639.643 499.458, 1639 501.133, 1639 469.469 C 1639 449.150, 1638.707 442.832, 1637.750 442.488 C 1637.063 442.241, 1634.250 442.373, 1631.500 442.780 L 1626.500 443.521 1626 465.011 C 1625.537 484.912, 1625.338 486.761, 1623.307 490.026 C 1620.321 494.827, 1607.919 506.622, 1600 512.194 C 1572.581 531.484, 1533.834 538.341, 1497.500 530.334 C 1487.228 528.070, 1471.219 521.578, 1463.367 516.491 C 1459.590 514.045, 1456.162 512.033, 1455.750 512.021 C 1455.338 512.010, 1455 516.050, 1455 521 L 1455 530 1399 530 L 1343 530 1343 515.500 L 1343 501 1348.250 500.985 C 1356.397 500.961, 1356.506 500.679, 1352.414 490.191 L 1348.828 481 1326.164 481.016 L 1303.500 481.033 1299.794 490.227 C 1297.756 495.284, 1296.217 499.551, 1296.375 499.708 C 1296.533 499.866, 1299.438 500.285, 1302.831 500.640 L 1309 501.285 1309 515.642 L 1309 530 1267 530 L 1225 530 1225 521.500 C 1225 512.244, 1224.595 511.728, 1219.933 515.048 C 1213.992 519.278, 1195.834 527.157, 1186.667 529.483 C 1155.737 537.329, 1122.446 533.976, 1095.500 520.301 C 1076.109 510.461, 1060.507 494.201, 1051.269 474.206 C 1041.578 453.231, 1038.665 419.487, 1044.475 395.500 C 1045.275 392.200, 1045.945 389.163, 1045.964 388.750 C 1045.984 388.337, 1043.143 388, 1039.652 388 L 1033.303 388 1032.145 379.750 C 1029.672 362.140, 1027.210 358.438, 1017 356.973 C 1013.425 356.460, 1008.129 356.031, 1005.230 356.020 L 999.961 356 1000.230 426.450 C 1000.441 481.474, 1000.776 497.176, 1001.760 498.160 C 1002.452 498.853, 1006.727 499.895, 1011.260 500.476 L 1019.500 501.532 1019.778 515.811 L 1020.055 530.090 941.278 529.770 L 862.500 529.449 852.500 526.734 C 836.624 522.425, 828.926 518.147, 818.899 508.060 C 810.970 500.083, 809.744 498.279, 803.199 484.954 C 799.294 477.004, 794.693 466.900, 792.975 462.500 C 791.257 458.100, 789.434 454.072, 788.925 453.550 C 788.357 452.967, 788 461.149, 788 474.729 C 788 493.005, 788.260 497.117, 789.491 498.348 C 790.344 499.201, 793.872 500.117, 797.741 500.490 C 801.458 500.849, 805.063 501.321, 805.750 501.540 C 806.672 501.833, 807 505.622, 807 515.969 L 807 530 753.473 530 L 699.945 530 700.223 515.750 C 700.484 502.335, 700.617 501.489, 702.500 501.305 C 712.940 500.287, 716.214 499.643, 717.501 498.357 C 718.806 497.051, 719 487.310, 719 423.051 C 719 357.493, 718.826 349.101, 717.444 347.954 C 716.589 347.244, 712.314 346.456, 707.944 346.203 L 700 345.743 700 330.372 L 700 315 756.369 315 C 815.169 315, 822.240 315.415, 835.500 319.650 C 844.968 322.673, 854.332 328.290, 861.467 335.227 C 865.298 338.952, 868.561 342, 868.717 342 C 868.872 342, 869 333.900, 869 324 C 869 314.100, 869.217 306, 869.481 306 C 869.746 306, 876.609 307.561, 884.731 309.469 C 892.854 311.377, 902.650 313.393, 906.500 313.949 C 915.638 315.269, 1015.248 315.281, 1024.500 313.963 C 1028.350 313.415, 1037.047 311.624, 1043.827 309.983 C 1050.606 308.342, 1057.244 307, 1058.577 307 L 1061 307 1061 330.500 C 1061 343.425, 1061.346 354, 1061.770 354 C 1062.193 354, 1064.298 351.779, 1066.448 349.065 C 1076.220 336.729, 1093.132 324.938, 1110.296 318.494 C 1112.934 317.503, 1114.734 316.361, 1114.296 315.956 C 1113.858 315.551, 1109 314.485, 1103.500 313.588 C 1087.091 310.912, 1060.645 305.826, 1058.500 304.933 C 1057.400 304.476, 1051.707 302.531, 1045.849 300.611 C 1016.567 291.017, 997.689 275.655, 986.931 252.666 C 984.439 247.340, 981.286 236.379, 979.478 226.750 L 978.962 224 961.481 224 L 944 224 944 217.332 C 944 207.558, 942.189 198.481, 939.808 196.324 C 938.164 194.833, 935.712 194.439, 926.398 194.164 L 915 193.828 915 221.879 C 915 253.810, 914.471 252, 923.795 252 C 926.504 252, 930.809 252.286, 933.360 252.636 L 938 253.272 938 273.136 L 938 293 873 293 L 808 293 808 275.887 L 808 258.774 799.126 268.137 C 789.407 278.391, 779.403 285.116, 766.296 290.206 C 752.681 295.492, 745.577 296.505, 722.500 296.450 C 703.475 296.404, 700.466 296.155, 690.500 293.800 C 678.435 290.948, 665.216 285.590, 654.454 279.192 C 642.849 272.292, 643.219 272.808, 641.414 261 C 638.584 242.494, 640.542 227.055, 648.834 202.500 L 653.561 188.500 657.781 188.545 C 660.101 188.570, 667.850 188.683, 675 188.795 L 688 189 688.008 195.250 C 688.022 205.465, 689.872 218.582, 692.163 224.706 C 695.093 232.538, 702.553 239.941, 710.517 242.920 C 717.482 245.527, 728.171 245.970, 734.892 243.931 C 740.571 242.208, 746 237.150, 746 233.582 C 746 226.714, 740.790 221.706, 718.605 207.247 C 677.444 180.420, 668.719 173.978, 660.714 164.500 C 646.835 148.067, 641.118 130.622, 642.272 108.229 C 642.766 98.646, 645.250 87.216, 648.461 79.750 C 649.124 78.209, 648.634 78.020, 644.357 78.168 C 641.686 78.261, 637.847 78.511, 635.826 78.724 M 915 116 L 915 140 923.750 139.944 C 934.618 139.873, 939.006 138.483, 940.909 134.508 C 941.697 132.862, 943.016 126.674, 943.841 120.758 L 945.340 110 952.145 110 L 958.950 110 958.331 106.750 C 957.310 101.396, 954.120 96.044, 950.710 93.965 C 947.872 92.234, 945.617 92.007, 931.250 92.004 L 915 92 915 116 M 1110.139 127.359 L 1104.977 132.586 1108.574 136.043 C 1113.362 140.645, 1116.903 146.819, 1117.811 152.147 L 1118.554 156.500 1124.624 157.173 C 1127.962 157.543, 1132.293 158.514, 1134.248 159.330 C 1137.715 160.779, 1137.871 160.744, 1140.577 157.919 C 1142.103 156.326, 1144.173 154.763, 1145.176 154.444 C 1146.179 154.126, 1147 153.536, 1147 153.134 C 1147 152.732, 1139.868 145.592, 1131.150 137.268 L 1115.301 122.133 1110.139 127.359 M 1081.030 147.279 C 1077.459 149.086, 1074 154.729, 1074 158.747 C 1074 169.124, 1083.880 175.216, 1093.033 170.483 C 1101.072 166.326, 1100.933 151.860, 1092.810 147.353 C 1089.851 145.711, 1084.199 145.676, 1081.030 147.279 M 1155.190 171.026 C 1153.369 172.136, 1151.216 174.633, 1150.404 176.575 C 1146.359 186.257, 1155.954 196.587, 1165.312 192.625 C 1169.932 190.670, 1172.169 187.678, 1172.730 182.706 C 1173.362 177.092, 1171.196 172.795, 1166.643 170.635 C 1162.099 168.479, 1159.205 168.577, 1155.190 171.026 M 1117.270 177.444 C 1113.620 179.074, 1110.009 184.288, 1110.004 187.934 C 1110.002 189.273, 1110.916 192.261, 1112.036 194.575 C 1113.777 198.170, 1114.720 198.944, 1118.535 199.904 C 1123.791 201.228, 1128.702 199.692, 1131.364 195.890 C 1138.392 185.857, 1128.224 172.549, 1117.270 177.444 M 1051.402 185.510 C 1050.001 187.648, 1049.826 190.274, 1050.221 203.260 C 1050.659 217.663, 1051.863 224, 1054.161 224 C 1054.622 224, 1055 214.775, 1055 203.500 C 1055 190.822, 1054.627 183, 1054.023 183 C 1053.486 183, 1052.306 184.129, 1051.402 185.510 M 122 247.095 C 122 264.292, 122.315 270.049, 123.334 271.442 C 124.790 273.433, 131.363 274.844, 139.625 274.940 C 142.444 274.973, 146.156 275.281, 147.875 275.625 L 151 276.250 151 296.125 L 151 316 76 316 L 1 316 1 445.500 L 1 575 176.520 575 L 352.039 575 344.176 563.250 C 335.931 550.932, 284.012 471.670, 277.690 461.750 C 275.674 458.587, 273.794 456, 273.512 456 C 273.231 456, 273 464.464, 273 474.809 C 273 488.840, 273.336 494.078, 274.324 495.429 C 275.270 496.722, 277.986 497.553, 283.824 498.335 L 292 499.429 292 513.215 L 292 527 240 527 L 188 527 188 513.144 L 188 499.287 195.217 498.616 C 199.186 498.248, 203.461 497.273, 204.717 496.450 L 207 494.954 207 424.699 C 207 346.102, 207.356 350.008, 200.193 349.991 C 198.162 349.987, 194.137 349.699, 191.250 349.352 L 186 348.721 186 337.824 L 186 326.926 175.342 309.713 C 169.479 300.246, 155.694 277.875, 144.708 260 C 133.721 242.125, 124.118 226.841, 123.366 226.036 C 122.208 224.795, 122 228.007, 122 247.095 M 1520 239.465 C 1520 248.788, 1520.211 250.043, 1521.934 250.965 C 1524.043 252.094, 1535 252.409, 1535 251.341 C 1535 250.979, 1532.299 246.513, 1528.998 241.417 C 1525.696 236.321, 1522.723 231.442, 1522.391 230.576 C 1520.870 226.613, 1520 229.849, 1520 239.465 M 576.500 312.960 C 563.424 315.729, 557.578 317.685, 547.693 322.602 C 536.005 328.415, 531.117 331.886, 521.171 341.433 C 499.960 361.792, 488.845 389.680, 488.860 422.500 C 488.870 443.503, 492.701 460.514, 501.247 477.500 C 509.400 493.704, 524.634 509.341, 541.070 518.374 C 575.927 537.532, 620.488 538.784, 655.500 521.590 C 684.323 507.435, 703.326 484.221, 710.883 453.933 C 717.880 425.889, 714.848 393.668, 702.961 369.740 C 689.062 341.762, 665.155 322.471, 634.277 314.317 C 625.704 312.053, 622.098 311.693, 605 311.395 C 588.718 311.111, 584.015 311.369, 576.500 312.960 M 1336.961 326.212 C 1336.239 328.021, 1326.004 351.325, 1314.216 378 C 1302.428 404.675, 1289.509 433.925, 1285.508 443 C 1259.941 500.994, 1258.159 504.494, 1251.723 509.392 C 1249.950 510.741, 1247.150 512.146, 1245.500 512.515 C 1239.721 513.807, 1239 514.146, 1239 515.567 C 1239 516.777, 1243.355 517, 1266.941 517 C 1294.497 517, 1299.624 516.397, 1293.306 513.899 C 1284.761 510.519, 1283.849 509.883, 1282.328 506.242 C 1280.866 502.744, 1280.903 502.088, 1282.903 496.002 C 1284.079 492.426, 1287.191 484.550, 1289.820 478.500 L 1294.598 467.500 1326.444 467.500 L 1358.290 467.500 1364.272 482.500 C 1372.748 503.758, 1372.354 509.016, 1362.005 512.692 C 1359.252 513.669, 1357 515.039, 1357 515.735 C 1357 516.735, 1365.796 517, 1399 517 C 1434.623 517, 1441 516.784, 1441 515.579 C 1441 514.787, 1439.562 513.849, 1437.750 513.457 C 1429.584 511.695, 1422.263 505.436, 1417.665 496.286 C 1414.880 490.744, 1384.257 422.682, 1358.157 364.025 C 1348.252 341.763, 1339.726 323.409, 1339.211 323.237 C 1338.695 323.065, 1337.683 324.404, 1336.961 326.212 M 883.233 348.501 C 883.393 363.171, 883.883 373.018, 884.455 373.043 C 884.980 373.065, 885.951 370.427, 886.614 367.181 C 888.236 359.227, 891.102 353.924, 896.082 349.662 C 902.843 343.875, 906.926 343, 927.178 343 L 945 343 944.978 421.250 C 944.957 495.398, 944.859 499.715, 943.095 503.599 C 940.856 508.529, 936.986 511.471, 930.639 513.069 C 927.997 513.734, 926.084 514.751, 926.293 515.379 C 926.558 516.176, 938.130 516.576, 966.333 516.761 C 999.947 516.983, 1006 516.808, 1006 515.611 C 1006 514.742, 1004.058 513.734, 1000.942 512.986 C 994.799 511.512, 990.332 507.940, 987.880 502.541 C 986.150 498.733, 986.043 494.020, 986.022 420.750 L 986 343 1003.962 343 C 1019.585 343, 1022.634 343.265, 1027.369 345.037 C 1036.705 348.530, 1042.324 356.489, 1044.462 369.250 C 1044.808 371.313, 1045.520 373, 1046.045 373 C 1046.626 373, 1047 363.349, 1047 348.383 L 1047 323.767 1044.750 324.407 C 1030.522 328.454, 1029.628 328.500, 965 328.500 C 903.468 328.500, 902.363 328.465, 893.671 326.250 C 888.815 325.012, 884.420 324, 883.904 324 C 883.337 324, 883.071 333.714, 883.233 348.501 M 1761.500 325.625 C 1751.420 328.401, 1738.403 328.984, 1686.250 328.992 C 1640.324 328.999, 1633 329.200, 1633 330.455 C 1633 331.348, 1634.447 332.172, 1636.750 332.590 C 1643.231 333.766, 1647.801 336.705, 1650.237 341.263 L 1652.500 345.500 1652.808 418.500 C 1652.977 458.650, 1652.835 493.840, 1652.492 496.700 C 1651.449 505.400, 1645.610 511.565, 1637.106 512.948 C 1634.801 513.323, 1633.402 514.149, 1633.187 515.265 C 1632.873 516.898, 1636.937 517, 1702.427 517 C 1740.692 517, 1772 516.836, 1772 516.635 C 1772 516.288, 1779.257 481.226, 1782.328 466.735 C 1783.180 462.717, 1783.387 459.739, 1782.837 459.399 C 1781.714 458.705, 1779 460.807, 1778.999 462.372 C 1778.998 464.650, 1772.778 476.557, 1768.344 482.771 C 1762.457 491.021, 1753.828 497.373, 1744.629 500.229 C 1738.220 502.219, 1735.328 502.445, 1716 502.471 L 1694.500 502.500 1694.237 466.176 L 1693.975 429.852 1714.237 430.176 C 1732.987 430.476, 1734.814 430.668, 1738.705 432.748 C 1744.293 435.734, 1748.047 440.603, 1750.597 448.173 C 1754.578 459.987, 1755 457.580, 1755 423.083 C 1755 395.940, 1754.780 391, 1753.571 391 C 1752.701 391, 1751.524 393.127, 1750.562 396.434 C 1748.464 403.653, 1743.599 409.816, 1737.535 412.936 C 1732.747 415.400, 1731.978 415.482, 1713.544 415.491 L 1694.500 415.500 1694.238 379.250 L 1693.975 343 1717.238 343.006 C 1730.032 343.009, 1742.091 343.453, 1744.035 343.993 C 1749.511 345.514, 1756.636 350.493, 1759.473 354.780 C 1760.888 356.919, 1762.823 361.889, 1763.773 365.827 C 1764.769 369.955, 1766.029 372.989, 1766.750 372.993 C 1767.716 372.998, 1768 367.437, 1768 348.500 C 1768 335.025, 1767.662 324.056, 1767.250 324.124 C 1766.838 324.192, 1764.250 324.868, 1761.500 325.625 M 578.785 326.978 C 566.923 329.480, 560.835 331.559, 552 336.125 C 536.149 344.318, 524.849 355.149, 515.981 370.648 C 507.048 386.261, 503 402.586, 503 423 C 503 450.885, 510.832 472.342, 527.360 489.742 C 536.121 498.965, 544.179 504.808, 555.373 510.053 C 583.388 523.182, 622.270 522.901, 649.288 509.377 C 667.682 500.169, 683.104 484.777, 691.015 467.730 C 705.782 435.912, 703.072 394.060, 684.418 365.833 C 671.068 345.633, 650.561 332.209, 625.137 327.028 C 612.067 324.364, 591.287 324.342, 578.785 326.978 M 1509.922 326.494 C 1493.043 329.679, 1480.813 334.598, 1468.244 343.259 C 1444.941 359.315, 1431.151 386.211, 1429.411 419 C 1426.481 474.179, 1460.674 513.672, 1516.181 519.222 C 1537.601 521.363, 1558.937 517.947, 1576.706 509.530 C 1588.586 503.902, 1596.602 498.195, 1605.250 489.209 L 1612 482.194 1612.002 461.347 C 1612.003 443.476, 1612.253 440.011, 1613.752 437.071 C 1616.054 432.555, 1619.724 429.981, 1624.837 429.295 C 1627.421 428.949, 1629 428.218, 1629 427.368 C 1629 426.235, 1622.563 426, 1591.500 426 C 1558.833 426, 1554 426.193, 1554 427.500 C 1554 428.464, 1554.982 429.008, 1556.750 429.022 C 1561.449 429.059, 1567.714 432.547, 1569.593 436.171 C 1571.824 440.474, 1572.691 460.324, 1571.149 471.784 C 1568.220 493.544, 1552.637 506.049, 1528.540 505.976 C 1513.351 505.929, 1503.999 502.115, 1493.887 491.844 C 1479.770 477.505, 1473.077 455.875, 1473.051 424.500 C 1473.025 394.084, 1480.181 371.575, 1494.881 355.834 C 1506.104 343.817, 1517.630 339.056, 1535.590 339.017 C 1563.632 338.957, 1585.276 355.386, 1594.519 383.750 C 1595.491 386.732, 1596.828 389, 1597.615 389 C 1598.757 389, 1599 384.697, 1599 364.437 L 1599 339.875 1592.677 337.007 C 1583.982 333.065, 1575.314 330.235, 1564.584 327.836 C 1552.521 325.138, 1521.187 324.369, 1509.922 326.494 M 714 330.431 C 714 331.464, 715.344 332.191, 718.055 332.625 C 723.237 333.453, 727.838 336.565, 730.446 341.003 C 732.471 344.450, 732.500 345.613, 732.500 423 C 732.500 495.617, 732.370 501.738, 730.765 504.671 C 728.449 508.905, 723.996 511.934, 718.779 512.825 C 716.009 513.298, 714.500 514.074, 714.500 515.028 C 714.500 516.299, 719.816 516.500, 753.417 516.500 C 781.275 516.500, 792.440 516.181, 792.707 515.379 C 792.917 514.750, 790.978 513.729, 788.290 513.054 C 782.293 511.546, 777.207 507.739, 775.394 503.400 C 774.242 500.644, 774 486.405, 774 421.436 L 774 342.808 787.750 343.154 C 800.582 343.477, 801.808 343.681, 806.113 346.212 C 812.298 349.848, 816.322 354.637, 819.098 361.668 C 821.100 366.738, 821.401 369.263, 821.401 381 C 821.401 392.808, 821.107 395.245, 819.054 400.449 C 814.266 412.587, 803.387 420.581, 790.146 421.691 C 786.216 422.020, 783 422.474, 783 422.698 C 783 422.922, 785.734 425.637, 789.075 428.730 C 795.743 434.903, 797.706 438.316, 806.486 459 C 818.327 486.895, 825.610 498.241, 836.151 505.211 C 842.923 509.689, 853.398 513.469, 863.120 514.942 C 872.948 516.432, 901.908 516.846, 902.109 515.500 C 902.191 514.950, 899.838 513.600, 896.879 512.500 C 882.599 507.191, 879.078 503.144, 860.914 471.164 C 849.224 450.581, 844.150 443.717, 835.476 436.746 C 829.343 431.818, 827.545 429, 830.534 429 C 831.458 429, 835.203 427.573, 838.857 425.830 C 856.042 417.629, 866.152 398.596, 864.600 377.365 C 862.808 352.841, 850.841 338.635, 826.154 331.727 C 818.864 329.687, 816.018 329.569, 766.250 329.236 C 719.643 328.924, 714 329.053, 714 330.431 M 589.024 340.603 C 581.088 342.736, 575.326 346.377, 568.314 353.693 C 553.957 368.668, 546.006 393.195, 546.006 422.500 C 546.006 443.845, 549.397 460.273, 556.979 475.655 C 563.468 488.819, 570.860 496.607, 581.794 501.800 C 588.505 504.987, 590.567 505.476, 598.808 505.837 C 615.007 506.545, 627.129 501.535, 637.274 489.937 C 656.654 467.782, 663.204 420.353, 651.904 384 C 646.759 367.451, 635.780 351.472, 625.356 345.363 C 614.956 339.268, 600.863 337.422, 589.024 340.603 M 592.500 354.236 C 569.597 362.468, 555.728 400.150, 561.054 439.678 C 565.461 472.385, 580.675 492.205, 601.517 492.389 C 618.922 492.541, 632.305 479.233, 639.414 454.700 C 651.107 414.348, 637.739 364.529, 612.705 355.163 C 606.426 352.813, 597.586 352.408, 592.500 354.236 M 1147.286 354.388 C 1136.128 358.041, 1128.337 365.437, 1121.945 378.446 C 1112.353 397.970, 1109.913 425.591, 1115.467 451.792 C 1121.539 480.438, 1138.225 495.816, 1159.221 492.118 C 1170.744 490.088, 1177.401 485.142, 1180.573 476.252 C 1182.104 471.963, 1182.513 446.359, 1181.087 444.106 C 1180.510 443.196, 1177.570 442.544, 1172.602 442.225 L 1165 441.737 1165 426.868 L 1165 412 1194.500 412 L 1224 412 1224 407.542 L 1224 403.084 1216.348 402.792 L 1208.696 402.500 1206.812 394.500 C 1202.336 375.495, 1192.388 362.215, 1178.352 356.509 C 1170.041 353.130, 1154.393 352.062, 1147.286 354.388 M 913.380 356.925 C 911.114 357.296, 908.082 358.371, 906.644 359.314 C 901.828 362.469, 901.307 363.956, 897.343 385.832 C 896.932 388.100, 896.669 388.156, 887.770 387.874 L 878.620 387.584 877.434 394.542 C 874.791 410.057, 864.529 427.128, 854.456 432.765 C 852.792 433.696, 852.970 434.160, 856.569 438.254 C 858.731 440.713, 863.254 447.400, 866.619 453.113 C 869.985 458.826, 876.285 469.505, 880.619 476.845 C 890.095 492.890, 895.274 498.250, 902.879 499.881 C 912.242 501.889, 928.350 500.625, 930.183 497.738 C 930.615 497.057, 930.976 464.887, 930.985 426.250 L 931 356 924.250 356.125 C 920.538 356.194, 915.646 356.554, 913.380 356.925 M 1708.750 356.542 C 1708.338 356.977, 1708 367.383, 1708 379.667 L 1708 402 1719.100 402 L 1730.200 402 1733.456 398.744 C 1736.083 396.117, 1737.119 393.763, 1738.813 386.580 C 1739.968 381.680, 1741.495 377.303, 1742.206 376.851 C 1742.918 376.400, 1745.247 376.024, 1747.382 376.015 L 1751.263 376 1750.726 371.993 C 1749.909 365.901, 1746.838 360.731, 1742.861 358.751 C 1740.215 357.433, 1735.662 356.847, 1724.424 356.376 C 1716.216 356.032, 1709.162 356.107, 1708.750 356.542 M 788 382.376 L 788 408 790.250 407.978 C 793.934 407.942, 800.552 404.438, 802.737 401.367 C 809.917 391.275, 809.578 369.156, 802.117 360.805 C 799.775 358.183, 798.442 357.618, 793.668 357.222 L 788 356.752 788 382.376 M 1313.250 422.754 C 1306.513 438.565, 1301 451.839, 1301 452.251 C 1301 452.663, 1312.250 453, 1326 453 C 1347.458 453, 1351 452.789, 1351 451.513 C 1351 450.695, 1346.050 437.864, 1340 423 C 1333.950 408.136, 1329 395.530, 1329 394.987 C 1329 394.444, 1328.213 394.002, 1327.250 394.003 C 1325.909 394.006, 1322.638 400.724, 1313.250 422.754 M 393.069 426.595 C 381.971 439.023, 373.027 449.741, 373.195 450.415 C 373.363 451.088, 380.250 462.052, 388.500 474.779 C 403.352 497.691, 403.535 497.919, 407.027 497.960 C 408.968 497.982, 411.555 497.299, 412.777 496.443 L 415 494.887 415 449.443 C 415 424.098, 414.613 404, 414.124 404 C 413.642 404, 404.167 414.168, 393.069 426.595 M 1324.484 431.692 C 1321.163 439.641, 1321.245 440, 1326.392 440 C 1329.701 440, 1331 439.601, 1331 438.583 C 1331 436.853, 1327.277 428, 1326.549 428 C 1326.262 428, 1325.333 429.661, 1324.484 431.692 M 1708.231 466.250 L 1708.500 488.500 1722.500 488.492 C 1738.980 488.483, 1744.368 487.069, 1751.357 480.917 C 1755.481 477.287, 1760 471.335, 1760 469.533 C 1760 469.131, 1755.643 468.959, 1750.318 469.151 L 1740.637 469.500 1739.322 461.717 C 1737.873 453.143, 1735.037 446.625, 1732.062 445.033 C 1731 444.465, 1725.143 444, 1719.047 444 L 1707.962 444 1708.231 466.250" stroke="none" fill="#ffffff" fill-rule="evenodd"/></svg>